<svg xmlns="http://www.w3.org/2000/svg" xmlns:xlink="http://www.w3.org/1999/xlink" width="149" zoomAndPan="magnify" viewBox="0 0 111.75 112.499997" height="150" preserveAspectRatio="xMidYMid meet" version="1.0"><defs><clipPath id="e6821c1af5"><path d="M 0.121094 0 L 12 0 L 12 11 L 0.121094 11 Z M 0.121094 0 " clip-rule="nonzero"/></clipPath><clipPath id="3f17398654"><path d="M 0.121094 14 L 3 14 L 3 111.132812 L 0.121094 111.132812 Z M 0.121094 14 " clip-rule="nonzero"/></clipPath><clipPath id="13b90c0332"><path d="M 14 0 L 111.378906 0 L 111.378906 2 L 14 2 Z M 14 0 " clip-rule="nonzero"/></clipPath></defs><g clip-path="url(#e6821c1af5)"><path fill="#000000" d="M 0.488281 10.480469 L 11.304688 10.480469 L 11.304688 -0.375 L 0.488281 -0.375 Z M 9.425781 1.511719 L 9.425781 8.597656 L 2.363281 8.597656 L 2.363281 1.511719 Z M 9.425781 1.511719 " fill-opacity="1" fill-rule="nonzero"/></g><g clip-path="url(#3f17398654)"><path fill="#000000" d="M 0.125 111.132812 L 0.125 14.027344 L 2.003906 14.027344 L 2.003906 111.132812 Z M 0.125 111.132812 " fill-opacity="1" fill-rule="nonzero"/></g><path fill="#000000" d="M 8.65625 82.617188 L 8.65625 14.027344 L 10.535156 14.027344 L 10.535156 82.617188 Z M 8.65625 82.617188 " fill-opacity="1" fill-rule="nonzero"/><g clip-path="url(#13b90c0332)"><path fill="#000000" d="M 14.839844 1.714844 L 14.839844 -0.167969 L 111.617188 -0.167969 L 111.617188 1.714844 Z M 14.839844 1.714844 " fill-opacity="1" fill-rule="nonzero"/></g><path fill="#000000" d="M 14.839844 10.277344 L 14.839844 8.390625 L 83.199219 8.390625 L 83.199219 10.277344 Z M 14.839844 10.277344 " fill-opacity="1" fill-rule="nonzero"/></svg>