<svg width="6rem" viewBox="0 0 48.834 44.469" height="59.292" fill="rgba(238,222,197)" preserveAspectRatio="xMidYMid" version="1.0" xmlns="http://www.w3.org/2000/svg"><path d="M11.656 38.762c1.332 0 2.805-.524 4.422-1.578a35.045 35.045 0 0 0 4.735-3.735 52.93 52.93 0 0 0 4.203-4.375c1.28-1.488 2.242-2.687 2.89-3.594.383-.55.75-.879 1.094-.984.344-.113.602-.062.781.156.176.211.239.543.188 1-.043.45-.235.953-.578 1.516-.305.523-.813 1.266-1.532 2.234a58.729 58.729 0 0 1-2.515 3.172 47.883 47.883 0 0 1-3.297 3.5 36.257 36.257 0 0 1-3.86 3.25 22.3 22.3 0 0 1-4.14 2.39c-1.43.626-2.828.938-4.203.938-1.906 0-3.496-.36-4.766-1.078-1.273-.707-2.289-1.625-3.047-2.75a10.897 10.897 0 0 1-1.578-3.719C.153 33.742 0 32.395 0 31.06c0-1.344.305-3.004.906-4.985.602-1.988 1.5-3.898 2.688-5.734a17.63 17.63 0 0 1 4.5-4.719c1.812-1.32 3.945-1.984 6.406-1.984 1.383 0 2.563.476 3.531 1.422.969.949 1.43 2.246 1.39 3.89 0 .774-.132 1.54-.39 2.297a7.24 7.24 0 0 1-1.047 2.016 5.33 5.33 0 0 1-1.515 1.39 3.695 3.695 0 0 1-1.907.516c-.562 0-.984-.203-1.265-.61a3.162 3.162 0 0 1-.516-1.437 6.664 6.664 0 0 1 0-1.578c.063-.52.14-.867.235-1.047.207-.3.441-.516.703-.64.258-.133.562-.286.906-.454.258-.133.46-.328.61-.578a1.6 1.6 0 0 0 .234-.844c0-.3-.09-.562-.266-.78-.168-.22-.445-.329-.828-.329-.398 0-1.102.313-2.11.938-1.011.625-2.046 1.558-3.109 2.796-1.062 1.23-2.008 2.774-2.828 4.625-.812 1.856-1.242 4.012-1.281 6.47-.043 1.429.148 2.593.578 3.5.438.905.977 1.62 1.625 2.14a5.87 5.87 0 0 0 2.125 1.11 8.71 8.71 0 0 0 2.281.312zm0 0"/><path d="M44.647 18.36c0-.708.352-1.063 1.062-1.063h2c.75 0 1.125.355 1.125 1.062v25.047c0 .711-.375 1.063-1.125 1.063h-2c-.71 0-1.062-.352-1.062-1.063v-10.86c0-.706-.398-1.062-1.188-1.062H32.975c-1.168 0-1.75.543-1.75 1.625l.063 10.297c0 .711-.356 1.063-1.063 1.063h-2c-.71 0-1.062-.352-1.062-1.063V1.125c0-.75.351-1.125 1.062-1.125h2c.707 0 1.063.375 1.063 1.125l-.063 26.922c0 .918.395 1.375 1.188 1.375h11.171c.54 0 .852-.04.938-.125.082-.082.125-.352.125-.813zm0 0"/></svg>