<svg width="73.995" viewBox="0 0 55.496 62.27" height="83.026" preserveAspectRatio="xMidYMid" version="1.0" xmlns="http://www.w3.org/2000/svg"><defs><clipPath id="a"><path d="M9.7 6.156h55.495v62.68H9.7Zm0 0"/></clipPath><clipPath id="b"><path d="M41.387 7.41 61.41 19.06a7.83 7.83 0 0 1 3.89 6.761v23.352a7.83 7.83 0 0 1-3.89 6.762L41.387 67.582a7.733 7.733 0 0 1-7.778 0L13.586 55.934a7.826 7.826 0 0 1-3.887-6.762V25.82c0-2.785 1.48-5.36 3.887-6.761L33.609 7.41a7.733 7.733 0 0 1 7.778 0zm0 0"/></clipPath></defs><g clip-path="url(#a)" transform="translate(-9.7 -6.361)"><g clip-path="url(#b)"><path fill="none" d="M41.387 7.41 61.41 19.06a7.83 7.83 0 0 1 3.89 6.761v23.352a7.83 7.83 0 0 1-3.89 6.762L41.387 67.582a7.733 7.733 0 0 1-7.778 0L13.586 55.934a7.826 7.826 0 0 1-3.887-6.762V25.82c0-2.785 1.48-5.36 3.887-6.761L33.609 7.41a7.733 7.733 0 0 1 7.778 0zm0 0" stroke="#c9c9c9" stroke-width="7.5"/></g></g><path d="M20.097 37.123c.688 0 1.445-.27 2.281-.812a18.28 18.28 0 0 0 2.438-1.907 27.33 27.33 0 0 0 2.172-2.265 32.72 32.72 0 0 0 1.484-1.844c.195-.29.383-.461.563-.516.187-.062.32-.035.406.078.094.106.125.278.094.516-.024.23-.121.492-.297.781-.157.274-.418.657-.782 1.157-.367.5-.796 1.046-1.296 1.64a26.32 26.32 0 0 1-1.704 1.797 20.915 20.915 0 0 1-1.984 1.672c-.687.5-1.402.91-2.14 1.234-.731.32-1.454.485-2.172.485-.98 0-1.797-.188-2.454-.563-.656-.363-1.18-.832-1.562-1.406a5.675 5.675 0 0 1-.813-1.922 9.69 9.69 0 0 1-.234-2.094c0-.687.152-1.539.453-2.562a11.72 11.72 0 0 1 1.39-2.953 9.203 9.203 0 0 1 2.313-2.438c.938-.676 2.04-1.015 3.313-1.015.707 0 1.312.246 1.812.734.508.492.75 1.156.72 2 0 .398-.071.793-.204 1.187-.125.387-.305.73-.531 1.032-.219.304-.48.543-.782.718a1.9 1.9 0 0 1-.984.266c-.293 0-.512-.102-.656-.312a1.86 1.86 0 0 1-.266-.735 3.531 3.531 0 0 1 0-.812c.04-.27.082-.453.125-.547a1.03 1.03 0 0 1 .36-.328c.132-.07.289-.149.468-.235a.789.789 0 0 0 .313-.297.825.825 0 0 0 .125-.437.564.564 0 0 0-.14-.39c-.087-.114-.227-.173-.423-.173-.199 0-.562.164-1.093.485-.524.312-1.055.789-1.594 1.422-.543.636-1.027 1.433-1.453 2.39-.43.961-.653 2.075-.672 3.344-.024.73.078 1.328.297 1.797.226.469.508.84.843 1.11.333.261.696.449 1.094.562.406.105.797.156 1.172.156zm0 0"/><path d="M37.109 26.616c0-.363.18-.546.547-.546h1.03c.384 0 .58.183.58.546v12.907c0 .367-.196.547-.58.547h-1.03c-.367 0-.547-.18-.547-.547v-5.594c0-.363-.203-.547-.61-.547h-5.406c-.605 0-.906.277-.906.828l.031 5.313c0 .367-.183.547-.547.547h-1.03c-.368 0-.548-.18-.548-.547V17.726c0-.383.18-.578.547-.578h1.031c.364 0 .547.195.547.578L30.187 31.6c0 .48.203.719.61.719h5.765c.281 0 .441-.02.484-.063.04-.05.063-.191.063-.422zm0 0"/></svg>