<svg xmlns="http://www.w3.org/2000/svg" width="100" viewBox="0 0 75 75" height="100" version="1.0"><defs><clipPath id="a"><path d="M13.613 10.578H61.38v53.844H13.613Zm0 0"/></clipPath><clipPath id="b"><path d="m41.383 11.973 16.105 9.367a7.83 7.83 0 0 1 3.89 6.762v18.793a7.825 7.825 0 0 1-3.89 6.761l-16.105 9.371a7.733 7.733 0 0 1-7.778 0L17.5 53.657a7.821 7.821 0 0 1-3.887-6.762V28.102c0-2.786 1.48-5.36 3.887-6.762l16.105-9.367a7.715 7.715 0 0 1 7.778 0Zm0 0"/></clipPath></defs><g clip-path="url(#a)"><g clip-path="url(#b)"><path fill="none" d="m41.383 11.973 16.105 9.367a7.83 7.83 0 0 1 3.89 6.762v18.793a7.825 7.825 0 0 1-3.89 6.761l-16.105 9.371a7.733 7.733 0 0 1-7.778 0L17.5 53.657a7.821 7.821 0 0 1-3.887-6.762V28.102c0-2.786 1.48-5.36 3.887-6.762l16.105-9.367a7.715 7.715 0 0 1 7.778 0Zm0 0" stroke="#b59e5f" stroke-width="4.5"/></g></g><path d="M29.796 43.484c.688 0 1.446-.27 2.282-.812a18.28 18.28 0 0 0 2.437-1.906 27.33 27.33 0 0 0 2.172-2.266 32.72 32.72 0 0 0 1.484-1.844c.196-.289.383-.46.563-.515.187-.063.32-.036.406.078.094.105.125.277.094.515-.024.23-.121.493-.297.782-.156.273-.418.656-.781 1.156-.367.5-.797 1.047-1.297 1.64a26.32 26.32 0 0 1-1.703 1.797 20.915 20.915 0 0 1-1.985 1.672c-.687.5-1.402.91-2.14 1.235-.73.32-1.453.484-2.172.484-.98 0-1.797-.188-2.453-.563-.657-.363-1.18-.832-1.563-1.406a5.675 5.675 0 0 1-.812-1.922 9.69 9.69 0 0 1-.235-2.093c0-.688.153-1.54.453-2.563A11.69 11.69 0 0 1 25.64 34a9.203 9.203 0 0 1 2.313-2.438c.937-.675 2.039-1.015 3.312-1.015.707 0 1.313.246 1.813.734.507.492.75 1.156.718 2 0 .399-.07.793-.203 1.188-.125.386-.304.73-.531 1.031-.219.305-.48.543-.781.719a1.9 1.9 0 0 1-.985.265c-.293 0-.511-.101-.656-.312a1.86 1.86 0 0 1-.266-.735 3.531 3.531 0 0 1 0-.812c.04-.27.082-.453.125-.547a1.03 1.03 0 0 1 .36-.328c.133-.07.289-.148.469-.234a.789.789 0 0 0 .312-.297.825.825 0 0 0 .125-.438.564.564 0 0 0-.14-.39c-.086-.114-.227-.172-.422-.172-.2 0-.563.164-1.094.484-.524.313-1.055.79-1.594 1.422-.543.637-1.027 1.434-1.453 2.39-.43.962-.652 2.075-.672 3.344-.023.73.078 1.328.297 1.797.227.469.508.84.844 1.11.332.261.695.449 1.093.562.407.106.797.156 1.172.156Zm0 0"/><path d="M46.808 32.978c0-.363.18-.547.547-.547h1.031c.383 0 .578.184.578.547v12.906c0 .367-.195.547-.578.547h-1.031c-.367 0-.547-.18-.547-.547V40.29c0-.363-.203-.547-.61-.547h-5.406c-.605 0-.906.278-.906.829l.031 5.312c0 .367-.183.547-.546.547h-1.032c-.367 0-.547-.18-.547-.547V24.087c0-.383.18-.578.547-.578h1.032c.363 0 .546.195.546.578l-.03 13.875c0 .48.202.719.609.719h5.765c.281 0 .442-.02.485-.063.039-.05.062-.191.062-.421Zm0 0"/></svg>