<svg xmlns="http://www.w3.org/2000/svg" xmlns:xlink="http://www.w3.org/1999/xlink" width="1080" zoomAndPan="magnify" viewBox="0 0 810 809.999993" height="1080" preserveAspectRatio="xMidYMid meet" version="1.0"><defs><filter x="0%" y="0%" width="100%" height="100%" id="e47b9c995e"><feColorMatrix values="0 0 0 0 1 0 0 0 0 1 0 0 0 0 1 0 0 0 1 0" color-interpolation-filters="sRGB"/></filter><mask id="a5bf1c4fab"><g filter="url(#e47b9c995e)"><rect x="-81" width="972" fill="#000000" y="-80.999999" height="971.999992" fill-opacity="0.5"/></g></mask><clipPath id="c7a4a4c474"><path d="M 1 0.160156 L 346.601562 0.160156 L 346.601562 388.71875 L 1 388.71875 Z M 1 0.160156 " clip-rule="nonzero"/></clipPath><clipPath id="cdd39d8e18"><rect x="0" width="347" y="0" height="389"/></clipPath><clipPath id="747bf21795"><path d="M 277.117188 209 L 610 209 L 610 583 L 277.117188 583 Z M 277.117188 209 " clip-rule="nonzero"/></clipPath></defs><g mask="url(#a5bf1c4fab)"><g transform="matrix(1, 0, 0, 1, 281, 212)"><g clip-path="url(#cdd39d8e18)"><g clip-path="url(#c7a4a4c474)"><path fill="#0b0507" d="M 329.320312 165.054688 L 51.984375 4.933594 C 29.324219 -8.144531 1.007812 8.199219 1.007812 34.363281 L 1.007812 354.605469 C 1.007812 380.765625 29.328125 397.117188 51.984375 384.035156 L 329.320312 223.914062 C 351.976562 210.835938 351.976562 178.136719 329.320312 165.054688 Z M 329.320312 165.054688 " fill-opacity="1" fill-rule="nonzero"/></g></g></g></g><g clip-path="url(#747bf21795)"><path fill="#e52d27" d="M 593.351562 367.65625 L 326.261719 213.453125 C 304.4375 200.855469 277.171875 216.59375 277.171875 241.792969 L 277.171875 550.203125 C 277.171875 575.394531 304.441406 591.140625 326.261719 578.542969 L 593.351562 424.339844 C 615.167969 411.742188 615.167969 380.25 593.351562 367.65625 Z M 593.351562 367.65625 " fill-opacity="1" fill-rule="nonzero"/></g></svg>