<svg xmlns="http://www.w3.org/2000/svg" xmlns:xlink="http://www.w3.org/1999/xlink" width="1080" zoomAndPan="magnify" viewBox="0 0 810 809.999993" height="1080" preserveAspectRatio="xMidYMid meet" version="1.0"><defs><filter x="0%" y="0%" width="100%" height="100%" id="21bdf440df"><feColorMatrix values="0 0 0 0 1 0 0 0 0 1 0 0 0 0 1 0 0 0 1 0" color-interpolation-filters="sRGB"/></filter><mask id="58fdff0e68"><g filter="url(#21bdf440df)"><rect x="-81" width="972" fill="#000000" y="-80.999999" height="971.999992" fill-opacity="0.5"/></g></mask><clipPath id="64f43650e9"><path d="M 0.929688 0.441406 L 326.398438 0.441406 L 326.398438 366.199219 L 0.929688 366.199219 Z M 0.929688 0.441406 " clip-rule="nonzero"/></clipPath><clipPath id="9768c35266"><rect x="0" width="327" y="0" height="367"/></clipPath><clipPath id="8aa8bd4323"><path d="M 277.117188 209 L 610 209 L 610 583 L 277.117188 583 Z M 277.117188 209 " clip-rule="nonzero"/></clipPath></defs><g mask="url(#58fdff0e68)"><g transform="matrix(1, 0, 0, 1, 312, 217)"><g clip-path="url(#9768c35266)"><g clip-path="url(#64f43650e9)"><path fill="#0b0507" d="M 310.183594 155.585938 L 48.988281 4.785156 C 27.644531 -7.53125 0.980469 7.859375 0.980469 32.503906 L 0.980469 334.105469 C 0.980469 358.742188 27.652344 374.140625 48.988281 361.824219 L 310.183594 211.023438 C 331.519531 198.703125 331.519531 167.90625 310.183594 155.585938 Z M 310.183594 155.585938 " fill-opacity="1" fill-rule="nonzero"/></g></g></g></g><g clip-path="url(#8aa8bd4323)"><path fill="#ff817c" d="M 593.351562 367.65625 L 326.261719 213.453125 C 304.4375 200.855469 277.171875 216.59375 277.171875 241.792969 L 277.171875 550.203125 C 277.171875 575.394531 304.441406 591.140625 326.261719 578.542969 L 593.351562 424.339844 C 615.167969 411.742188 615.167969 380.25 593.351562 367.65625 Z M 593.351562 367.65625 " fill-opacity="1" fill-rule="nonzero"/></g></svg>