<svg xmlns="http://www.w3.org/2000/svg" xmlns:xlink="http://www.w3.org/1999/xlink" width="1080" zoomAndPan="magnify" viewBox="0 0 810 809.999993" height="1080" preserveAspectRatio="xMidYMid meet" version="1.0"><defs><filter x="0%" y="0%" width="100%" height="100%" id="37c3043290"><feColorMatrix values="0 0 0 0 1 0 0 0 0 1 0 0 0 0 1 0 0 0 1 0" color-interpolation-filters="sRGB"/></filter><mask id="b8c6b02d0d"><g filter="url(#37c3043290)"><rect x="-81" width="972" fill="#000000" y="-80.999999" height="971.999992" fill-opacity="0.75"/></g></mask><clipPath id="a31aea1426"><path d="M 1 0.171875 L 594 0.171875 L 594 523.746094 L 1 523.746094 Z M 1 0.171875 " clip-rule="nonzero"/></clipPath><clipPath id="e185fc4c24"><path d="M 76 0.171875 L 518.109375 0.171875 C 538 0.171875 557.078125 8.074219 571.144531 22.140625 C 585.207031 36.203125 593.109375 55.28125 593.109375 75.171875 L 593.109375 448.746094 C 593.109375 468.636719 585.207031 487.714844 571.144531 501.777344 C 557.078125 515.84375 538 523.746094 518.109375 523.746094 L 76 523.746094 C 56.109375 523.746094 37.03125 515.84375 22.96875 501.777344 C 8.902344 487.714844 1 468.636719 1 448.746094 L 1 75.171875 C 1 55.28125 8.902344 36.203125 22.96875 22.140625 C 37.03125 8.074219 56.109375 0.171875 76 0.171875 Z M 76 0.171875 " clip-rule="nonzero"/></clipPath><clipPath id="06928671ca"><rect x="0" width="595" y="0" height="524"/></clipPath><mask id="c16d3c1ae2"><g filter="url(#37c3043290)"><rect x="-81" width="972" fill="#000000" y="-80.999999" height="971.999992" fill-opacity="0.3"/></g></mask><clipPath id="eb76a9c51d"><path d="M 0.886719 0.359375 L 250.601562 0.359375 L 250.601562 281.160156 L 0.886719 281.160156 Z M 0.886719 0.359375 " clip-rule="nonzero"/></clipPath><clipPath id="61c7370dd5"><rect x="0" width="251" y="0" height="282"/></clipPath><mask id="59e88a6ee1"><g filter="url(#37c3043290)"><rect x="-81" width="972" fill="#000000" y="-80.999999" height="971.999992" fill-opacity="0.9"/></g></mask><clipPath id="e8c6758d33"><path d="M 1.023438 0.679688 L 280.558594 0.679688 L 280.558594 315.078125 L 1.023438 315.078125 Z M 1.023438 0.679688 " clip-rule="nonzero"/></clipPath><clipPath id="f99be3176c"><rect x="0" width="281" y="0" height="316"/></clipPath></defs><g mask="url(#b8c6b02d0d)"><g transform="matrix(1, 0, 0, 1, 80, 131)"><g clip-path="url(#06928671ca)"><g clip-path="url(#a31aea1426)"><g clip-path="url(#e185fc4c24)"><path fill="#d6d6d6" d="M 1 0.171875 L 594.109375 0.171875 L 594.109375 523.746094 L 1 523.746094 Z M 1 0.171875 " fill-opacity="1" fill-rule="nonzero"/></g></g></g></g></g><g mask="url(#c16d3c1ae2)"><g transform="matrix(1, 0, 0, 1, 281, 285)"><g clip-path="url(#61c7370dd5)"><g clip-path="url(#eb76a9c51d)"><path fill="#c2c0be" d="M 238.203125 119.417969 L 37.765625 3.695312 C 21.386719 -5.757812 0.921875 6.054688 0.921875 24.964844 L 0.921875 256.410156 C 0.921875 275.316406 21.390625 287.136719 37.765625 277.683594 L 238.203125 161.957031 C 254.574219 152.503906 254.574219 128.871094 238.203125 119.417969 Z M 238.203125 119.417969 " fill-opacity="1" fill-rule="nonzero"/></g></g></g></g><g mask="url(#59e88a6ee1)"><g transform="matrix(1, 0, 0, 1, 234, 235)"><g clip-path="url(#f99be3176c)"><g clip-path="url(#e8c6758d33)"><path fill="#f4f4f4" d="M 266.710938 134.136719 L 42.308594 4.578125 C 23.976562 -6.003906 1.066406 7.21875 1.066406 28.390625 L 1.066406 287.507812 C 1.066406 308.671875 23.980469 321.902344 42.308594 311.320312 L 266.710938 181.761719 C 285.042969 171.179688 285.042969 144.71875 266.710938 134.136719 Z M 266.710938 134.136719 " fill-opacity="1" fill-rule="nonzero"/></g></g></g></g></svg>