<svg xmlns="http://www.w3.org/2000/svg" xmlns:xlink="http://www.w3.org/1999/xlink" width="1080" zoomAndPan="magnify" viewBox="0 0 810 809.999993" height="1080" preserveAspectRatio="xMidYMid meet" version="1.0"><defs><filter x="0%" y="0%" width="100%" height="100%" id="ae82562fee"><feColorMatrix values="0 0 0 0 1 0 0 0 0 1 0 0 0 0 1 0 0 0 1 0" color-interpolation-filters="sRGB"/></filter><mask id="30b55ceda5"><g filter="url(#ae82562fee)"><rect x="-81" width="972" fill="#000000" y="-80.999999" height="971.999992" fill-opacity="0.75"/></g></mask><clipPath id="953210cbad"><path d="M 0.878906 0.921875 L 533.796875 0.921875 L 533.796875 482.996094 L 0.878906 482.996094 Z M 0.878906 0.921875 " clip-rule="nonzero"/></clipPath><clipPath id="33529643a2"><path d="M 75.878906 0.921875 L 458.234375 0.921875 C 478.125 0.921875 497.199219 8.820312 511.265625 22.886719 C 525.332031 36.953125 533.234375 56.027344 533.234375 75.921875 L 533.234375 407.996094 C 533.234375 427.886719 525.332031 446.964844 511.265625 461.03125 C 497.199219 475.09375 478.125 482.996094 458.234375 482.996094 L 75.878906 482.996094 C 55.984375 482.996094 36.910156 475.09375 22.84375 461.03125 C 8.777344 446.964844 0.878906 427.886719 0.878906 407.996094 L 0.878906 75.921875 C 0.878906 56.027344 8.777344 36.953125 22.84375 22.886719 C 36.910156 8.820312 55.984375 0.921875 75.878906 0.921875 Z M 75.878906 0.921875 " clip-rule="nonzero"/></clipPath><clipPath id="6250fb425c"><rect x="0" width="534" y="0" height="484"/></clipPath><mask id="e1308ff769"><g filter="url(#ae82562fee)"><rect x="-81" width="972" fill="#000000" y="-80.999999" height="971.999992" fill-opacity="0.3"/></g></mask><clipPath id="82f6c9a1b2"><path d="M 0.566406 0.679688 L 250.28125 0.679688 L 250.28125 281.480469 L 0.566406 281.480469 Z M 0.566406 0.679688 " clip-rule="nonzero"/></clipPath><clipPath id="622d352aa3"><rect x="0" width="251" y="0" height="282"/></clipPath><mask id="7a77329959"><g filter="url(#ae82562fee)"><rect x="-81" width="972" fill="#000000" y="-80.999999" height="971.999992" fill-opacity="0.9"/></g></mask><clipPath id="ecfa5b8a61"><path d="M 0.707031 0.238281 L 280.238281 0.238281 L 280.238281 314.640625 L 0.707031 314.640625 Z M 0.707031 0.238281 " clip-rule="nonzero"/></clipPath><clipPath id="a58d9c6401"><rect x="0" width="281" y="0" height="315"/></clipPath></defs><g mask="url(#30b55ceda5)"><g transform="matrix(1, 0, 0, 1, 110, 151)"><g clip-path="url(#6250fb425c)"><g clip-path="url(#953210cbad)"><g clip-path="url(#33529643a2)"><path fill="#f4f4f4" d="M 0.878906 0.921875 L 533.796875 0.921875 L 533.796875 482.996094 L 0.878906 482.996094 Z M 0.878906 0.921875 " fill-opacity="1" fill-rule="nonzero"/></g></g></g></g></g><g mask="url(#e1308ff769)"><g transform="matrix(1, 0, 0, 1, 301, 289)"><g clip-path="url(#622d352aa3)"><g clip-path="url(#82f6c9a1b2)"><path fill="#c2c0be" d="M 237.882812 119.84375 L 37.445312 4.121094 C 21.066406 -5.332031 0.605469 6.480469 0.605469 25.390625 L 0.605469 256.835938 C 0.605469 275.742188 21.070312 287.558594 37.445312 278.105469 L 237.882812 162.382812 C 254.257812 152.929688 254.257812 129.296875 237.882812 119.84375 Z M 237.882812 119.84375 " fill-opacity="1" fill-rule="nonzero"/></g></g></g></g><g mask="url(#7a77329959)"><g transform="matrix(1, 0, 0, 1, 254, 240)"><g clip-path="url(#a58d9c6401)"><g clip-path="url(#ecfa5b8a61)"><path fill="#d6d6d6" d="M 266.390625 133.5625 L 41.992188 4.003906 C 23.65625 -6.578125 0.746094 6.644531 0.746094 27.816406 L 0.746094 286.933594 C 0.746094 308.097656 23.660156 321.328125 41.992188 310.746094 L 266.390625 181.1875 C 284.722656 170.605469 284.722656 144.144531 266.390625 133.5625 Z M 266.390625 133.5625 " fill-opacity="1" fill-rule="nonzero"/></g></g></g></g></svg>