<svg xmlns="http://www.w3.org/2000/svg" xmlns:xlink="http://www.w3.org/1999/xlink" width="1080" zoomAndPan="magnify" viewBox="0 0 810 809.999993" height="1080" preserveAspectRatio="xMidYMid meet" version="1.0"><defs><filter x="0%" y="0%" width="100%" height="100%" id="db51257940"><feColorMatrix values="0 0 0 0 1 0 0 0 0 1 0 0 0 0 1 0 0 0 1 0" color-interpolation-filters="sRGB"/></filter><mask id="42404ac291"><g filter="url(#db51257940)"><rect x="-81" width="972" fill="#000000" y="-80.999999" height="971.999992" fill-opacity="0.5"/></g></mask><clipPath id="7dc7b270bb"><path d="M 0.277344 0.679688 L 345.960938 0.679688 L 345.960938 389.238281 L 0.277344 389.238281 Z M 0.277344 0.679688 " clip-rule="nonzero"/></clipPath><clipPath id="ccf2ae93f9"><rect x="0" width="346" y="0" height="390"/></clipPath><clipPath id="abb7ca235e"><path d="M 258.691406 190 L 592 190 L 592 565 L 258.691406 565 Z M 258.691406 190 " clip-rule="nonzero"/></clipPath></defs><rect x="-81" width="972" fill="#ffffff" y="-80.999999" height="971.999992" fill-opacity="1"/><rect x="-81" width="972" fill="#e52d27" y="-80.999999" height="971.999992" fill-opacity="1"/><g mask="url(#42404ac291)"><g transform="matrix(1, 0, 0, 1, 267, 193)"><g clip-path="url(#ccf2ae93f9)"><g clip-path="url(#7dc7b270bb)"><path fill="#0b0507" d="M 328.644531 165.457031 L 51.308594 5.335938 C 28.644531 -7.742188 0.332031 8.601562 0.332031 34.765625 L 0.332031 355.007812 C 0.332031 381.167969 28.652344 397.519531 51.308594 384.4375 L 328.644531 224.316406 C 351.296875 211.238281 351.296875 178.539062 328.644531 165.457031 Z M 328.644531 165.457031 " fill-opacity="1" fill-rule="nonzero"/></g></g></g></g><g clip-path="url(#abb7ca235e)"><path fill="#ffffff" d="M 574.925781 349.058594 L 307.835938 194.851562 C 286.011719 182.257812 258.742188 197.996094 258.742188 223.195312 L 258.742188 531.601562 C 258.742188 556.796875 286.015625 572.542969 307.835938 559.945312 L 574.925781 405.742188 C 596.742188 393.144531 596.742188 361.652344 574.925781 349.058594 Z M 574.925781 349.058594 " fill-opacity="1" fill-rule="nonzero"/></g></svg>