<svg xmlns="http://www.w3.org/2000/svg" xmlns:xlink="http://www.w3.org/1999/xlink" width="300" zoomAndPan="magnify" viewBox="0 0 224.87999 112.499997" height="150" preserveAspectRatio="xMidYMid meet" version="1.0"><defs><filter x="0%" y="0%" width="100%" height="100%" id="72cdacee3d"><feColorMatrix values="0 0 0 0 1 0 0 0 0 1 0 0 0 0 1 0 0 0 1 0" color-interpolation-filters="sRGB"/></filter><g/><mask id="458c3226df"><g filter="url(#72cdacee3d)"><rect x="-22.487999" width="269.855988" fill="#000000" y="-11.25" height="134.999996" fill-opacity="0.5"/></g></mask><clipPath id="4aecf238bd"><path d="M 0.535156 31 L 1 31 L 1 32 L 0.535156 32 Z M 0.535156 31 " clip-rule="nonzero"/></clipPath><clipPath id="db32b07341"><rect x="0" width="197" y="0" height="93"/></clipPath><clipPath id="d23b19dae3"><path d="M 0.464844 107 L 6 107 L 6 112.003906 L 0.464844 112.003906 Z M 0.464844 107 " clip-rule="nonzero"/></clipPath><clipPath id="dd5af8e877"><path d="M 0.464844 61.382812 L 2 61.382812 L 2 106 L 0.464844 106 Z M 0.464844 61.382812 " clip-rule="nonzero"/></clipPath><clipPath id="f3af472008"><path d="M 7 111 L 51.214844 111 L 51.214844 112.003906 L 7 112.003906 Z M 7 111 " clip-rule="nonzero"/></clipPath><clipPath id="e662ac73d5"><path d="M 219 0 L 224.324219 0 L 224.324219 5 L 219 5 Z M 219 0 " clip-rule="nonzero"/></clipPath><clipPath id="5f6cb97d65"><path d="M 223 6 L 224.324219 6 L 224.324219 50.609375 L 223 50.609375 Z M 223 6 " clip-rule="nonzero"/></clipPath><clipPath id="e5c5bc9738"><path d="M 173.660156 0 L 218 0 L 218 1 L 173.660156 1 Z M 173.660156 0 " clip-rule="nonzero"/></clipPath></defs><g mask="url(#458c3226df)"><g transform="matrix(1, 0, 0, 1, 14, 10)"><g clip-path="url(#db32b07341)"><g clip-path="url(#4aecf238bd)"><g fill="#000000" fill-opacity="1"><g transform="translate(0.764993, 31.669424)"><g/></g></g></g><g fill="#000000" fill-opacity="1"><g transform="translate(10.316451, 31.669424)"><g/></g></g><g fill="#000000" fill-opacity="1"><g transform="translate(19.867908, 31.669424)"><g/></g></g><g fill="#000000" fill-opacity="1"><g transform="translate(29.419409, 31.669424)"><g><path d="M 21.664062 -2.140625 C 21.664062 -2.140625 19.101562 0.078125 14.671875 0.078125 C 10.390625 0.078125 4.316406 -1.832031 4.316406 -11.882812 C 4.316406 -21.777344 10.964844 -23.800781 14.671875 -23.800781 C 19.179688 -23.800781 21.664062 -22.007812 21.664062 -22.007812 L 21.664062 -22.847656 C 21.664062 -22.847656 19.027344 -24.414062 14.671875 -24.414062 C 7.792969 -24.414062 1.527344 -20.746094 1.527344 -11.882812 C 1.527344 -1.679688 9.511719 0.726562 14.328125 0.726562 C 19.101562 0.726562 21.664062 -1.300781 21.664062 -1.300781 Z M 21.664062 -2.140625 "/></g></g></g><g fill="#000000" fill-opacity="1"><g transform="translate(52.724981, 31.669424)"><g><path d="M 15.777344 -23.957031 L 15.777344 -12.800781 L 4.546875 -12.800781 L 4.546875 -23.957031 L 1.832031 -23.957031 L 1.832031 0.0390625 L 4.546875 0.0390625 L 4.546875 -12.1875 L 15.777344 -12.1875 L 15.777344 0.0390625 L 18.53125 0.0390625 L 18.53125 -23.957031 Z M 15.777344 -23.957031 "/></g></g></g><g fill="#000000" fill-opacity="1"><g transform="translate(73.241524, 31.669424)"><g><path d="M 13.984375 -23.34375 L 13.984375 -23.957031 L 1.832031 -23.957031 L 1.832031 0.0390625 L 13.984375 0.0390625 L 13.984375 -0.574219 L 4.546875 -0.574219 L 4.546875 -12.1875 L 12.953125 -12.1875 L 12.953125 -12.800781 L 4.546875 -12.800781 L 4.546875 -23.34375 Z M 13.984375 -23.34375 "/></g></g></g><g fill="#000000" fill-opacity="1"><g transform="translate(88.867718, 31.669424)"><g><path d="M 18.605469 -23.957031 L 11.347656 -11.765625 L 4.355469 -23.957031 L 1.222656 -23.957031 L 8.941406 -10.429688 L 8.941406 0.0390625 L 11.691406 0.0390625 L 11.691406 -11.15625 L 19.371094 -23.957031 Z M 18.605469 -23.957031 "/></g></g></g><g fill="#000000" fill-opacity="1"><g transform="translate(109.498875, 31.669424)"><g><path d="M 19.980469 0.0390625 L 22.921875 0.0390625 L 12.417969 -24.414062 L 12.226562 -24.414062 L 1.335938 0.0390625 L 2.179688 0.0390625 L 6.496094 -9.589844 L 15.816406 -9.589844 Z M 6.761719 -10.238281 L 11.234375 -20.289062 L 15.550781 -10.238281 Z M 6.761719 -10.238281 "/></g></g></g><g fill="#000000" fill-opacity="1"><g transform="translate(133.797793, 31.669424)"><g><path d="M 21.320312 -23.957031 L 20.707031 -23.957031 L 20.707031 -3.628906 L 1.910156 -24.414062 L 1.832031 -24.414062 L 1.832031 0.0390625 L 2.445312 0.0390625 L 2.445312 -20.058594 L 21.203125 0.726562 L 21.320312 0.726562 Z M 21.320312 -23.957031 "/></g></g></g><g fill="#000000" fill-opacity="1"><g transform="translate(157.141564, 31.669424)"><g><path d="M 21.320312 -23.957031 L 20.707031 -23.957031 L 20.707031 -3.628906 L 1.910156 -24.414062 L 1.832031 -24.414062 L 1.832031 0.0390625 L 2.445312 0.0390625 L 2.445312 -20.058594 L 21.203125 0.726562 L 21.320312 0.726562 Z M 21.320312 -23.957031 "/></g></g></g><g fill="#000000" fill-opacity="1"><g transform="translate(180.485335, 31.669424)"><g><path d="M 13.984375 -23.34375 L 13.984375 -23.957031 L 1.832031 -23.957031 L 1.832031 0.0390625 L 13.984375 0.0390625 L 13.984375 -0.574219 L 4.546875 -0.574219 L 4.546875 -12.1875 L 12.953125 -12.1875 L 12.953125 -12.800781 L 4.546875 -12.800781 L 4.546875 -23.34375 Z M 13.984375 -23.34375 "/></g></g></g><g fill="#000000" fill-opacity="1"><g transform="translate(0.764993, 85.157667)"><g><path d="M 15.777344 -23.957031 L 15.777344 -12.800781 L 4.546875 -12.800781 L 4.546875 -23.957031 L 1.832031 -23.957031 L 1.832031 0.0390625 L 4.546875 0.0390625 L 4.546875 -12.1875 L 15.777344 -12.1875 L 15.777344 0.0390625 L 18.53125 0.0390625 L 18.53125 -23.957031 Z M 15.777344 -23.957031 "/></g></g></g><g fill="#000000" fill-opacity="1"><g transform="translate(21.281536, 85.157667)"><g><path d="M 13.984375 -23.34375 L 13.984375 -23.957031 L 1.832031 -23.957031 L 1.832031 0.0390625 L 13.984375 0.0390625 L 13.984375 -0.574219 L 4.546875 -0.574219 L 4.546875 -12.1875 L 12.953125 -12.1875 L 12.953125 -12.800781 L 4.546875 -12.800781 L 4.546875 -23.34375 Z M 13.984375 -23.34375 "/></g></g></g><g fill="#000000" fill-opacity="1"><g transform="translate(36.90773, 85.157667)"><g><path d="M 32.207031 -23.957031 L 26.171875 -4.203125 L 18.261719 -23.6875 L 18.109375 -23.6875 L 16.734375 -20.25 L 10.164062 -4.125 L 4.089844 -23.957031 L 1.261719 -23.917969 L 8.75 0.535156 L 8.976562 0.535156 L 17.039062 -19.410156 L 25.140625 0.535156 L 25.367188 0.535156 L 32.894531 -23.957031 Z M 32.207031 -23.957031 "/></g></g></g><g fill="#000000" fill-opacity="1"><g transform="translate(71.178373, 85.157667)"><g><path d="M 2.214844 0.0390625 L 4.929688 0.0390625 L 4.929688 -23.957031 L 2.214844 -23.957031 Z M 2.214844 0.0390625 "/></g></g></g><g fill="#000000" fill-opacity="1"><g transform="translate(78.513896, 85.157667)"><g><path d="M 18.757812 -23.957031 L 1.261719 -23.957031 L 1.261719 -23.34375 L 8.632812 -23.34375 L 8.632812 0.0390625 L 11.386719 0.0390625 L 11.386719 -23.34375 L 18.757812 -23.34375 Z M 18.757812 -23.957031 "/></g></g></g><g fill="#000000" fill-opacity="1"><g transform="translate(98.571973, 85.157667)"><g><path d="M 18.757812 -23.957031 L 1.261719 -23.957031 L 1.261719 -23.34375 L 8.632812 -23.34375 L 8.632812 0.0390625 L 11.386719 0.0390625 L 11.386719 -23.34375 L 18.757812 -23.34375 Z M 18.757812 -23.957031 "/></g></g></g></g></g></g><g clip-path="url(#d23b19dae3)"><path fill="#bca260" d="M 0.613281 107.214844 L 5.539062 107.214844 L 5.539062 112.15625 L 0.613281 112.15625 Z M 4.683594 111.300781 L 4.683594 108.070312 L 1.46875 108.070312 L 1.46875 111.300781 Z M 4.683594 111.300781 " fill-opacity="1" fill-rule="nonzero"/></g><g clip-path="url(#dd5af8e877)"><path fill="#bca260" d="M 0.449219 61.382812 L 0.449219 105.597656 L 1.304688 105.597656 L 1.304688 61.382812 Z M 0.449219 61.382812 " fill-opacity="1" fill-rule="nonzero"/></g><path fill="#bca260" d="M 4.332031 74.367188 L 4.332031 105.597656 L 5.1875 105.597656 L 5.1875 74.367188 Z M 4.332031 74.367188 " fill-opacity="1" fill-rule="nonzero"/><g clip-path="url(#f3af472008)"><path fill="#bca260" d="M 7.148438 111.207031 L 7.148438 112.0625 L 51.203125 112.0625 L 51.203125 111.207031 Z M 7.148438 111.207031 " fill-opacity="1" fill-rule="nonzero"/></g><path fill="#bca260" d="M 7.148438 107.308594 L 7.148438 108.164062 L 38.265625 108.164062 L 38.265625 107.308594 Z M 7.148438 107.308594 " fill-opacity="1" fill-rule="nonzero"/><g clip-path="url(#e662ac73d5)"><path fill="#bca260" d="M 224.257812 4.777344 L 219.332031 4.777344 L 219.332031 -0.167969 L 224.257812 -0.167969 Z M 220.1875 0.691406 L 220.1875 3.917969 L 223.402344 3.917969 L 223.402344 0.691406 Z M 220.1875 0.691406 " fill-opacity="1" fill-rule="nonzero"/></g><g clip-path="url(#5f6cb97d65)"><path fill="#bca260" d="M 224.421875 50.609375 L 224.421875 6.390625 L 223.566406 6.390625 L 223.566406 50.609375 Z M 224.421875 50.609375 " fill-opacity="1" fill-rule="nonzero"/></g><path fill="#bca260" d="M 220.539062 37.625 L 220.539062 6.390625 L 219.683594 6.390625 L 219.683594 37.625 Z M 220.539062 37.625 " fill-opacity="1" fill-rule="nonzero"/><g clip-path="url(#e5c5bc9738)"><path fill="#bca260" d="M 217.726562 0.785156 L 217.726562 -0.0742188 L 173.671875 -0.0742188 L 173.671875 0.785156 Z M 217.726562 0.785156 " fill-opacity="1" fill-rule="nonzero"/></g><path fill="#bca260" d="M 217.726562 4.683594 L 217.726562 3.824219 L 186.605469 3.824219 L 186.605469 4.683594 Z M 217.726562 4.683594 " fill-opacity="1" fill-rule="nonzero"/></svg>