<?xml version="1.0" encoding="UTF-8" standalone="no"?>
<svg
   width="274.51657"
   viewBox="0 0 205.77762 27.929927"
   height="37.239902"
   version="1.0"
   id="svg1"
   sodipodi:docname="CheyanneHewitt copy 2.svg"
   inkscape:version="1.3 (0e150ed, 2023-07-21)"
   xmlns:inkscape="http://www.inkscape.org/namespaces/inkscape"
   xmlns:sodipodi="http://sodipodi.sourceforge.net/DTD/sodipodi-0.dtd"
   xmlns="http://www.w3.org/2000/svg"
   xmlns:svg="http://www.w3.org/2000/svg">
  <defs
     id="defs1" />
  <sodipodi:namedview
     id="namedview1"
     pagecolor="#ffffff"
     bordercolor="#000000"
     borderopacity="0.25"
     inkscape:showpageshadow="2"
     inkscape:pageopacity="0.0"
     inkscape:pagecheckerboard="0"
     inkscape:deskcolor="#d1d1d1"
     inkscape:zoom="1.876995"
     inkscape:cx="122.80267"
     inkscape:cy="37.293653"
     inkscape:window-width="1312"
     inkscape:window-height="449"
     inkscape:window-x="0"
     inkscape:window-y="0"
     inkscape:window-maximized="0"
     inkscape:current-layer="svg1" />
  <path
     d="m 17.54308,17.094 c 0.114,0.062 0.305,0.226 0.578,0.484 0.196,0.156 0.172,0.422 -0.078,0.797 -1.562,2.437 -3.965,3.656 -7.203,3.656 -2.5740002,0 -4.7660002,-0.988 -6.5779998,-2.969 -1.805,-1.976 -2.703,-4.379 -2.703,-7.203 0,-2.8 0.898,-5.195 2.703,-7.187 1.8119996,-1.989 4.0039996,-2.985 6.5779998,-2.985 3.238,0 5.567,1.18 6.984,3.532 0.239,0.398 0.239,0.671 0,0.828 -0.136,0.086 -0.277,0.168 -0.421,0.25 -0.115152,0.06422 -0.243367,0.101484 -0.375,0.109 -0.157,0 -0.266,-0.117 -0.329,-0.36 -0.156,-0.769 -0.761,-1.5 -1.812001,-2.187 -1.162326,-0.785007 -2.535467,-1.198902 -3.937999,-1.187 -2.0110002,0 -3.6560002,0.87 -4.9370002,2.609 -1.2729996,1.742 -1.9059996,3.914 -1.9059996,6.516 0,2.71 0.64,4.914 1.9219996,6.609 1.289,1.7 2.921,2.547 4.8900002,2.547 1.54,0 2.895,-0.41 4.062999,-1.234 0.695001,-0.5 1.222001,-1.047 1.578001,-1.641 0.094,-0.219 0.18,-0.43 0.265,-0.64 0.133,-0.301 0.29,-0.454 0.47,-0.454 0.062,0 0.144,0.04 0.25,0.11 z m 13.525,-7.875 c 0,-0.332 0.164,-0.5 0.5,-0.5 h 0.953 c 0.351,0 0.531,0.168 0.531,0.5 v 11.89 c 0,0.336 -0.18,0.5 -0.531,0.5 h -0.953 c -0.336,0 -0.5,-0.164 -0.5,-0.5 v -5.156 c 0,-0.344 -0.188,-0.516 -0.563,-0.516 h -4.983 c -0.555,0 -0.828,0.262 -0.828,0.782 l 0.03,4.89 c 0,0.336 -0.167,0.5 -0.5,0.5 h -0.952 c -0.336,0 -0.5,-0.164 -0.5,-0.5 V 1.031 c 0,-0.352 0.164,-0.531 0.5,-0.531 h 0.953 c 0.332,0 0.5,0.18 0.5,0.531 l -0.031,12.781 c 0,0.438 0.187,0.657 0.562,0.657 h 5.313 c 0.25,0 0.394,-0.02 0.437,-0.063 0.04,-0.039 0.063,-0.172 0.063,-0.39 z m 14.192,-0.532 h -5.578 c -1.261,-0.02 -1.89,0.7 -1.89,2.157 v 9.015 c 0,1.168 0.648,1.75 1.953,1.75 h 5.422 c 0.332,0 0.5,-0.144 0.5,-0.437 0,-0.32 -0.18,-0.485 -0.532,-0.485 h -2.343 c -0.969,-0.02 -1.649,-0.031 -2.032,-0.031 -0.656,0 -0.984,-0.305 -0.984,-0.922 v -3.515 c 0,-0.52 0.274,-0.782 0.828,-0.782 0.457,0 1.051,-0.004 1.781,-0.015 h 1.782 c 0.351,0 0.531,-0.16 0.531,-0.485 0,-0.289 -0.164,-0.437 -0.484,-0.437 -0.512,0 -1.18,-0.008 -2,-0.031 h -1.875 c -0.375,0 -0.563,-0.22 -0.563,-0.657 v -3.047 c 0,-0.3 0.113,-0.562 0.344,-0.78 0.226,-0.227 0.488,-0.345 0.781,-0.345 0.676,0.024 1.414,0.024 2.219,0 0.723912,-0.0156 1.447933,-0.0256 2.172,-0.03 0.414,0 0.625,-0.15 0.625,-0.454 0,-0.312 -0.219,-0.469 -0.657,-0.469 z m 7.074,17.907 2.281,-5.375 c 0.102,-0.25 0.094,-0.516 -0.031,-0.797 -1.548591,-3.676903 -3.059005,-7.369768 -4.531,-11.078 -0.157,-0.415 -0.047,-0.625 0.328,-0.625 h 0.89 c 0.258,0 0.457,0.156 0.594,0.468 l 3.61,8.594 c 0.082,0.2 0.203,0.297 0.359,0.297 0.133,0 0.242,-0.098 0.328,-0.297 0.438,-1.125 1.066,-2.555 1.89,-4.297 0.68737,-1.440326 1.323437,-2.90458 1.907,-4.39 0.113,-0.29 0.32,-0.438 0.625,-0.438 0.094,0 0.164,0.059 0.219,0.172 0.062,0.105 0.078,0.203 0.047,0.297 -0.594,1.625 -1.825,4.512 -3.688,8.656 -1.93,4.352 -3.18,7.27 -3.75,8.75 -0.148,0.352 -0.34,0.531 -0.578,0.531 -0.375,0 -0.563,-0.078 -0.563,-0.234 0,-0.063 0.02,-0.14 0.063,-0.234 z m 19.883,-8.485 h -4.14 c -0.345,0 -0.563,0.168 -0.657,0.5 -0.242,0.774 -0.496,1.586 -0.766,2.438 -0.125,0.375 -0.32,0.562 -0.578,0.562 -0.406,0 -0.543,-0.219 -0.406,-0.656 l 3.5,-11.281 c 0.238,-0.758 0.703,-1.141 1.39,-1.141 0.633,0 1.051,0.262 1.25,0.781 0.97,2.688 2.38,6.543 4.235,11.563 0.062,0.18 0.062,0.336 0,0.469 -0.063,0.18 -0.203,0.265 -0.422,0.265 h -0.937 c -0.399,0 -0.668,-0.187 -0.813,-0.562 l -0.86,-2.453 c -0.093,-0.32 -0.359,-0.485 -0.796,-0.485 z m -3.938,-0.89 h 3.875 c 0.258,0 0.344,-0.125 0.25,-0.375 -0.625272,-1.78866 -1.270981,-3.57011 -1.937,-5.344 -0.117,-0.352 -0.262,-0.531 -0.438,-0.531 -0.18,0 -0.32,0.156 -0.422,0.468 -0.335,1.075 -0.855,2.79 -1.562,5.14 -0.148,0.43 -0.07,0.642 0.234,0.642 z m 12.176,3.702 V 10.313 c 0,-0.488 0.14,-0.875 0.422,-1.156 0.278772,-0.285616 0.662944,-0.443699 1.062,-0.437 0.645,0 1.176,0.308 1.594,0.921 1.008,1.524 2.66,4.024 4.953,7.5 0.156,0.211 0.274,0.313 0.36,0.313 0.093,0 0.14,-0.188 0.14,-0.563 v -7.28 c 0,-0.595 0.16,-0.891 0.485,-0.891 0.312,0 0.468,0.296 0.468,0.89 v 11.14 c 0,0.555 -0.18,0.829 -0.531,0.829 -0.18,0 -0.34,-0.098 -0.484,-0.297 l -6.61,-10.312 c -0.218,-0.352 -0.418,-0.532 -0.593,-0.532 -0.2,0 -0.297,0.219 -0.297,0.657 v 9.828 c 0,0.437 -0.18,0.656 -0.532,0.656 -0.293,0 -0.437,-0.219 -0.437,-0.656 z m 14.191,0 V 10.313 c 0,-0.488 0.141,-0.875 0.422003,-1.156 0.27901,-0.285872 0.6636,-0.443976 1.063,-0.437 0.644,0 1.176,0.308 1.593,0.921 1.008,1.524 2.659997,4.024 4.954007,7.5 0.156,0.211 0.273,0.313 0.359,0.313 0.094,0 0.14,-0.188 0.14,-0.563 v -7.28 c 0,-0.595 0.16,-0.891 0.485,-0.891 0.312,0 0.469,0.296 0.469,0.89 v 11.14 c 0,0.555 -0.18,0.829 -0.532,0.829 -0.18,0 -0.34,-0.098 -0.484,-0.297 L 96.505083,10.97 c -0.218,-0.352 -0.417,-0.532 -0.593,-0.532 -0.2,0 -0.297,0.219 -0.297,0.657 v 9.828 c 0,0.437 -0.18,0.656 -0.531,0.656 -0.293003,0 -0.438003,-0.219 -0.438003,-0.656 z M 116.30709,8.687 h -5.579 c -1.261,-0.02 -1.89,0.7 -1.89,2.157 v 9.015 c 0,1.168 0.648,1.75 1.953,1.75 h 5.422 c 0.332,0 0.5,-0.144 0.5,-0.437 0,-0.32 -0.18,-0.485 -0.531,-0.485 h -2.344 c -0.6769,-0.01612 -1.35392,-0.02646 -2.031,-0.031 -0.657,0 -0.985,-0.305 -0.985,-0.922 v -3.515 c 0,-0.52 0.274,-0.782 0.828,-0.782 0.457,0 1.051,-0.004 1.782,-0.015 h 1.78 c 0.352,0 0.532,-0.16 0.532,-0.485 0,-0.289 -0.164,-0.437 -0.484,-0.437 -0.512,0 -1.18,-0.008 -2,-0.031 h -1.875 c -0.375,0 -0.563,-0.22 -0.563,-0.657 v -3.047 c 0,-0.3 0.113,-0.562 0.344,-0.78 0.226,-0.227 0.488,-0.345 0.781,-0.345 0.676,0.024 1.414,0.024 2.219,0 0.72391,-0.0156 1.44793,-0.0256 2.172,-0.03 0.414,0 0.625,-0.15 0.625,-0.454 0,-0.312 -0.219,-0.469 -0.656,-0.469 z m 21.685,0.532 c 0,-0.332 0.165,-0.5 0.5,-0.5 h 0.954 c 0.351,0 0.531,0.168 0.531,0.5 v 11.89 c 0,0.336 -0.18,0.5 -0.531,0.5 h -0.953 c -0.336,0 -0.5,-0.164 -0.5,-0.5 v -5.156 c 0,-0.344 -0.188,-0.516 -0.563,-0.516 h -4.984 c -0.555,0 -0.828,0.262 -0.828,0.782 l 0.031,4.89 c 0,0.336 -0.168,0.5 -0.5,0.5 h -0.953 c -0.336,0 -0.5,-0.164 -0.5,-0.5 V 1.031 c 0,-0.352 0.164,-0.531 0.5,-0.531 h 0.953 c 0.332,0 0.5,0.18 0.5,0.531 l -0.031,12.781 c 0,0.438 0.187,0.657 0.562,0.657 h 5.313 c 0.25,0 0.394,-0.02 0.437,-0.063 0.04,-0.039 0.063,-0.172 0.063,-0.39 z m 14.194,-0.532 h -5.579 c -1.261,-0.02 -1.89,0.7 -1.89,2.157 v 9.015 c 0,1.168 0.648,1.75 1.953,1.75 h 5.422 c 0.332,0 0.5,-0.144 0.5,-0.437 0,-0.32 -0.18,-0.485 -0.531,-0.485 h -2.344 c -0.6769,-0.01612 -1.35392,-0.02646 -2.031,-0.031 -0.657,0 -0.985,-0.305 -0.985,-0.922 v -3.515 c 0,-0.52 0.274,-0.782 0.828,-0.782 0.457,0 1.051,-0.004 1.782,-0.015 h 1.78 c 0.352,0 0.532,-0.16 0.532,-0.485 0,-0.289 -0.164,-0.437 -0.484,-0.437 -0.512,0 -1.18,-0.008 -2,-0.031 h -1.875 c -0.375,0 -0.563,-0.22 -0.563,-0.657 v -3.047 c 0,-0.3 0.114,-0.562 0.344,-0.78 0.227,-0.227 0.488,-0.345 0.781,-0.345 0.676,0.024 1.414,0.024 2.219,0 0.72391,-0.0156 1.44793,-0.0256 2.172,-0.03 0.414,0 0.625,-0.15 0.625,-0.454 0,-0.312 -0.219,-0.469 -0.656,-0.469 z m 10.339,0.657 c -0.157,-0.415 -0.047,-0.625 0.328,-0.625 h 0.89 c 0.25,0 0.438,0.156 0.563,0.468 0.75,2 1.894,5.055 3.437,9.157 0.051,0.18 0.172,0.265 0.36,0.265 0.133,0 0.238,-0.086 0.312,-0.265 1.313,-3.29 2.5,-6.352 3.563,-9.188 0.101,-0.289 0.3,-0.437 0.594,-0.437 0.113,0 0.195,0.058 0.25,0.171 0.0481,0.09106 0.0643,0.195642 0.046,0.297 -0.71,1.938 -2.242,5.938 -4.593,12 -0.106,0.282 -0.313,0.422 -0.625,0.422 -0.375,0 -0.641,-0.207 -0.797,-0.625 -0.7,-1.758 -1.371,-3.52 -2.016,-5.281 -0.043,0.125 -0.758,1.953 -2.14,5.484 -0.094,0.282 -0.293,0.422 -0.594,0.422 -0.375,0 -0.653,-0.207 -0.828,-0.625 -1.48734,-3.863241 -2.93011,-7.743499 -4.328,-11.64 -0.137,-0.415 -0.028,-0.625 0.328,-0.625 h 0.89 c 0.282,0 0.477,0.156 0.594,0.468 0.727,2 1.863,5.055 3.406,9.157 0.063,0.18 0.18,0.265 0.36,0.265 0.156,0 0.265,-0.086 0.328,-0.265 0.219,-0.489 0.726,-1.782 1.531,-3.875 -0.45,-1.207 -1.07,-2.915 -1.86,-5.125 z m 15.103,-3.532 c 0,-0.281 0.094,-0.52 0.281,-0.718 0.19152,-0.199165 0.45888,-0.307202 0.735,-0.297 0.27,0 0.504,0.101 0.703,0.297 0.19261,0.188926 0.29987,0.448216 0.297,0.718 0.002,0.265236 -0.10541,0.519569 -0.297,0.703 -0.18322,0.191891 -0.43769,0.299398 -0.703,0.297 -0.305,0 -0.547,-0.097 -0.735,-0.297 -0.18369,-0.187396 -0.28455,-0.44063 -0.28,-0.703 z m 0,3.438 c 0,-0.352 0.164,-0.531 0.5,-0.531 h 0.953 c 0.332,0 0.5,0.18 0.5,0.53 v 11.86 c 0,0.336 -0.168,0.5 -0.5,0.5 h -0.953 c -0.336,0 -0.5,-0.164 -0.5,-0.5 z m 10.113,11.891 c 0,0.335 0.164,0.5 0.5,0.5 h 0.765 c 0.332,0 0.5,-0.165 0.5,-0.5 V 10.108 c 0,-0.238 0.11,-0.379 0.329,-0.422 0.062,-0.008 0.28,-0.015 0.656,-0.015 h 1.89 c 0.438,0 0.657,-0.118 0.657,-0.36 V 9.077 c 0,-0.238 -0.278,-0.36 -0.828,-0.36 h -7.344 c -0.574,0 -0.86,0.122 -0.86,0.36 v 0.234 c 0,0.242 0.223,0.36 0.672,0.36 h 2.61 c 0.3,0 0.453,0.148 0.453,0.437 z m 12.295,0 c 0,0.335 0.164,0.5 0.5,0.5 h 0.766 c 0.332,0 0.5,-0.165 0.5,-0.5 V 10.108 c 0,-0.238 0.11,-0.379 0.328,-0.422 0.062,-0.008 0.281,-0.015 0.656,-0.015 h 1.89 c 0.438,0 0.657,-0.118 0.657,-0.36 V 9.077 c 0,-0.238 -0.277,-0.36 -0.828,-0.36 h -7.344 c -0.574,0 -0.86,0.122 -0.86,0.36 v 0.234 c 0,0.242 0.223,0.36 0.673,0.36 h 2.61 c 0.3,0 0.452,0.148 0.452,0.437 z"
     id="path1"
     sodipodi:nodetypes="cccscscsccccccccscscccscccssssssssssccssssssccsscccscsssssscsssscssscsssccccssccccssccscccsccccsscssccsccscccssccsssccsccscsccccsssssssccsssssccsccccsssssssccssssscscssssssccssscssscsssccccsscssssssssssccssssssccsscccscssssssccssscssscsssccccsscssccsccscccscccsccssccsccccccccccccccsssssssssssssscssssssssssssssssscssssssssssss"
     style="opacity:0.4;fill:#00000f;fill-opacity:1;stroke:#000000;stroke-opacity:1" />
  <path
     d="m 15.92964,17.961926 c 0.11401,0.062 0.30501,0.226 0.57801,0.484 0.19599,0.156 0.17199,0.422 -0.078,0.797 -1.56199,2.437 -3.965,3.656 -7.20299,3.656 -2.574,0 -4.766,-0.988 -6.578,-2.969 -1.80499998,-1.976 -2.70299998,-4.379 -2.70299998,-7.203 0,-2.8 0.898,-5.195 2.70299998,-7.187 1.812,-1.989 4.004,-2.985 6.578,-2.985 3.23799,0 5.567,1.18 6.984,3.532 0.23899,0.398 0.23899,0.671 0,0.828 -0.13601,0.086 -0.277,0.168 -0.42101,0.25 -0.11515,0.06422 -0.24336,0.101484 -0.375,0.109 -0.15699,0 -0.266,-0.117 -0.32899,-0.36 -0.15601,-0.769 -0.76101,-1.5 -1.81201,-2.187 -1.16232,-0.785007 -2.53546,-1.198902 -3.93799,-1.187 -2.011,0 -3.656,0.87 -4.937,2.609 -1.273,1.742 -1.906,3.914 -1.906,6.516 0,2.71 0.64,4.914 1.922,6.609 1.289,1.7 2.921,2.547 4.89,2.547 1.53999,0 2.89499,-0.41 4.063,-1.234 0.69499,-0.5 1.22199,-1.047 1.57799,-1.641 0.094,-0.219 0.18,-0.43 0.26501,-0.64 0.13299,-0.301 0.28999,-0.454 0.47,-0.454 0.062,0 0.14399,0.04 0.25,0.11 z m 13.525,-7.875 c 0,-0.332 0.164,-0.5 0.5,-0.5 h 0.953 c 0.351,0 0.531,0.168 0.531,0.5 v 11.89 c 0,0.336 -0.18,0.5 -0.531,0.5 h -0.953 c -0.336,0 -0.5,-0.164 -0.5,-0.5 v -5.156 c 0,-0.344 -0.188,-0.516 -0.563,-0.516 h -4.983 c -0.555,0 -0.828,0.262 -0.828,0.782 l 0.03,4.89 c 0,0.336 -0.167,0.5 -0.5,0.5 h -0.952 c -0.336,0 -0.5,-0.164 -0.5,-0.5 V 1.898925 c 0,-0.352 0.164,-0.531 0.5,-0.531 h 0.953 c 0.332,0 0.5,0.18 0.5,0.531 l -0.031,12.781001 c 0,0.438 0.187,0.657 0.562,0.657 h 5.313 c 0.25,0 0.394,-0.02 0.437,-0.063 0.04,-0.039 0.063,-0.172 0.063,-0.39 z m 14.192,-0.532 h -5.578 c -1.261,-0.02 -1.89,0.7 -1.89,2.157 v 9.015 c 0,1.168 0.648,1.75 1.953,1.75 h 5.422 c 0.332,0 0.5,-0.144 0.5,-0.437 0,-0.32 -0.18,-0.485 -0.532,-0.485 h -2.343 c -0.969,-0.02 -1.649,-0.031 -2.032,-0.031 -0.656,0 -0.984,-0.305 -0.984,-0.922 v -3.515 c 0,-0.52 0.274,-0.782 0.828,-0.782 0.457,0 1.051,-0.004 1.781,-0.015 h 1.782 c 0.351,0 0.531,-0.16 0.531,-0.485 0,-0.289 -0.164,-0.437 -0.484,-0.437 -0.512,0 -1.18,-0.008 -2,-0.031 h -1.875 c -0.375,0 -0.563,-0.22 -0.563,-0.657 v -3.047 c 0,-0.3 0.113,-0.562 0.344,-0.78 0.226,-0.227 0.488,-0.345 0.781,-0.345 0.676,0.024 1.414,0.024 2.219,0 0.72392,-0.0156 1.44794,-0.0256 2.172,-0.03 0.414,0 0.625,-0.15 0.625,-0.454 0,-0.312 -0.219,-0.469 -0.657,-0.469 z m 7.074,17.907 2.281,-5.375 c 0.102,-0.25 0.094,-0.516 -0.031,-0.797 -1.54859,-3.676903 -3.059,-7.369768 -4.531,-11.078 -0.157,-0.415 -0.047,-0.625 0.328,-0.625 h 0.89 c 0.25801,0 0.457,0.156 0.594,0.468 l 3.61,8.594 c 0.082,0.2 0.20301,0.297 0.359,0.297 0.133,0 0.242,-0.098 0.328,-0.297 0.43801,-1.125 1.066,-2.555 1.89,-4.297 0.68737,-1.440326 1.32344,-2.90458 1.90701,-4.39 0.113,-0.29 0.32,-0.438 0.625,-0.438 0.094,0 0.16399,0.059 0.219,0.172 0.062,0.105 0.078,0.203 0.047,0.297 -0.59401,1.625 -1.82501,4.512 -3.68801,8.656 -1.93,4.352 -3.18,7.27 -3.75,8.75 -0.148,0.352 -0.34,0.531 -0.578,0.531 -0.375,0 -0.563,-0.078 -0.563,-0.234 0,-0.063 0.02,-0.14 0.063,-0.234 z m 19.883,-8.485 h -4.14 c -0.345,0 -0.563,0.168 -0.657,0.5 -0.242,0.774 -0.496,1.586 -0.766,2.438 -0.125,0.375 -0.32,0.562 -0.578,0.562 -0.406,0 -0.543,-0.219 -0.406,-0.656 l 3.5,-11.281 c 0.238,-0.758 0.703,-1.141 1.39,-1.141 0.633,0 1.051,0.262 1.25,0.781 0.97,2.688 2.38,6.543 4.235,11.563 0.062,0.18 0.062,0.336 0,0.469 -0.063,0.18 -0.203,0.265 -0.422,0.265 h -0.937 c -0.399,0 -0.668,-0.187 -0.813,-0.562 l -0.86,-2.453 c -0.093,-0.32 -0.359,-0.485 -0.796,-0.485 z m -3.938,-0.89 h 3.875 c 0.258,0 0.344,-0.125 0.25,-0.375 -0.62527,-1.78866 -1.27098,-3.57011 -1.937,-5.344 -0.117,-0.352 -0.262,-0.531 -0.438,-0.531 -0.18,0 -0.32,0.156 -0.422,0.468 -0.335,1.075 -0.855,2.79 -1.562,5.14 -0.148,0.43 -0.07,0.642 0.234,0.642 z m 12.176,3.702 v -10.608 c 0,-0.488 0.14,-0.875 0.422,-1.156 0.27878,-0.285616 0.66295,-0.443699 1.062,-0.437 0.645,0 1.176,0.308 1.594,0.921 1.008,1.524 2.66,4.024 4.953,7.5 0.156,0.211 0.274,0.313 0.36,0.313 0.093,0 0.14,-0.188 0.14,-0.563 v -7.28 c 0,-0.595 0.16,-0.891 0.485,-0.891 0.312,0 0.468,0.296 0.468,0.89 v 11.14 c 0,0.555 -0.18,0.829 -0.531,0.829 -0.18,0 -0.34,-0.098 -0.484,-0.297 l -6.61,-10.312 c -0.218,-0.352 -0.418,-0.532 -0.593,-0.532 -0.2,0 -0.297,0.219 -0.297,0.657 v 9.828 c 0,0.437 -0.18,0.656 -0.532,0.656 -0.293,0 -0.437,-0.219 -0.437,-0.656 z m 14.191,0 v -10.608 c 0,-0.488 0.141,-0.875 0.42201,-1.156 0.27901,-0.285872 0.6636,-0.443976 1.063,-0.437 0.644,0 1.176,0.308 1.593,0.921 1.008,1.524 2.66,4.024 4.954,7.5 0.156,0.211 0.273,0.313 0.359,0.313 0.094,0 0.14,-0.188 0.14,-0.563 v -7.28 c 0,-0.595 0.16,-0.891 0.485,-0.891 0.312,0 0.469,0.296 0.469,0.89 v 11.14 c 0,0.555 -0.18,0.829 -0.532,0.829 -0.18,0 -0.34,-0.098 -0.484,-0.297 l -6.61,-10.312 c -0.218,-0.352 -0.417,-0.532 -0.593,-0.532 -0.2,0 -0.297,0.219 -0.297,0.657 v 9.828 c 0,0.437 -0.18,0.656 -0.531,0.656 -0.29301,0 -0.43801,-0.219 -0.43801,-0.656 z m 21.66101,-12.234 h -5.579 c -1.261,-0.02 -1.89,0.7 -1.89,2.157 v 9.015 c 0,1.168 0.648,1.75 1.953,1.75 h 5.422 c 0.332,0 0.5,-0.144 0.5,-0.437 0,-0.32 -0.18,-0.485 -0.531,-0.485 h -2.344 c -0.6769,-0.01612 -1.35392,-0.02646 -2.031,-0.031 -0.657,0 -0.985,-0.305 -0.985,-0.922 v -3.515 c 0,-0.52 0.274,-0.782 0.828,-0.782 0.457,0 1.051,-0.004 1.782,-0.015 h 1.78 c 0.352,0 0.532,-0.16 0.532,-0.485 0,-0.289 -0.164,-0.437 -0.484,-0.437 -0.512,0 -1.18,-0.008 -2,-0.031 h -1.875 c -0.375,0 -0.563,-0.22 -0.563,-0.657 v -3.047 c 0,-0.3 0.113,-0.562 0.344,-0.78 0.226,-0.227 0.488,-0.345 0.781,-0.345 0.676,0.024 1.414,0.024 2.219,0 0.72391,-0.0156 1.44793,-0.0256 2.172,-0.03 0.414,0 0.625,-0.15 0.625,-0.454 0,-0.312 -0.219,-0.469 -0.656,-0.469 z m 21.685,0.532 c 0,-0.332 0.165,-0.5 0.5,-0.5 h 0.954 c 0.351,0 0.531,0.168 0.531,0.5 v 11.89 c 0,0.336 -0.18,0.5 -0.531,0.5 h -0.953 c -0.336,0 -0.5,-0.164 -0.5,-0.5 v -5.156 c 0,-0.344 -0.188,-0.516 -0.563,-0.516 h -4.984 c -0.555,0 -0.828,0.262 -0.828,0.782 l 0.031,4.89 c 0,0.336 -0.168,0.5 -0.5,0.5 h -0.953 c -0.336,0 -0.5,-0.164 -0.5,-0.5 V 1.898925 c 0,-0.352 0.164,-0.531 0.5,-0.531 h 0.953 c 0.332,0 0.5,0.18 0.5,0.531 l -0.031,12.781001 c 0,0.438 0.187,0.657 0.562,0.657 h 5.313 c 0.25,0 0.394,-0.02 0.437,-0.063 0.04,-0.039 0.063,-0.172 0.063,-0.39 z m 14.194,-0.532 h -5.579 c -1.261,-0.02 -1.89,0.7 -1.89,2.157 v 9.015 c 0,1.168 0.648,1.75 1.953,1.75 h 5.422 c 0.332,0 0.5,-0.144 0.5,-0.437 0,-0.32 -0.18,-0.485 -0.531,-0.485 h -2.344 c -0.6769,-0.01612 -1.35392,-0.02646 -2.031,-0.031 -0.657,0 -0.985,-0.305 -0.985,-0.922 v -3.515 c 0,-0.52 0.274,-0.782 0.828,-0.782 0.457,0 1.051,-0.004 1.782,-0.015 h 1.78 c 0.352,0 0.532,-0.16 0.532,-0.485 0,-0.289 -0.164,-0.437 -0.484,-0.437 -0.512,0 -1.18,-0.008 -2,-0.031 h -1.875 c -0.375,0 -0.563,-0.22 -0.563,-0.657 v -3.047 c 0,-0.3 0.114,-0.562 0.344,-0.78 0.227,-0.227 0.488,-0.345 0.781,-0.345 0.676,0.024 1.414,0.024 2.219,0 0.72391,-0.0156 1.44793,-0.0256 2.172,-0.03 0.414,0 0.625,-0.15 0.625,-0.454 0,-0.312 -0.219,-0.469 -0.656,-0.469 z m 10.339,0.657 c -0.157,-0.415 -0.047,-0.625 0.328,-0.625 h 0.89 c 0.25,0 0.438,0.156 0.563,0.468 0.75,2 1.894,5.055 3.437,9.157 0.051,0.18 0.172,0.265 0.36,0.265 0.133,0 0.238,-0.086 0.312,-0.265 1.313,-3.29 2.5,-6.352 3.563,-9.188 0.101,-0.289 0.3,-0.437 0.594,-0.437 0.113,0 0.195,0.058 0.25,0.171 0.0481,0.09106 0.0643,0.195642 0.046,0.297 -0.71,1.938 -2.242,5.938 -4.593,12 -0.106,0.282 -0.313,0.422 -0.625,0.422 -0.375,0 -0.641,-0.207 -0.797,-0.625 -0.7,-1.758 -1.371,-3.52 -2.016,-5.281 -0.043,0.125 -0.758,1.953 -2.14,5.484 -0.094,0.282 -0.293,0.422 -0.594,0.422 -0.375,0 -0.653,-0.207 -0.828,-0.625 -1.48734,-3.863241 -2.93011,-7.743499 -4.328,-11.64 -0.137,-0.415 -0.028,-0.625 0.328,-0.625 h 0.89 c 0.282,0 0.477,0.156 0.594,0.468 0.727,2 1.863,5.055 3.406,9.157 0.063,0.18 0.18,0.265 0.36,0.265 0.156,0 0.265,-0.086 0.328,-0.265 0.219,-0.489 0.726,-1.782 1.531,-3.875 -0.45,-1.207 -1.07,-2.915 -1.86,-5.125 z m 15.103,-3.532 c 0,-0.281 0.094,-0.52 0.281,-0.718 0.19152,-0.199165 0.45888,-0.307202 0.735,-0.297 0.27,0 0.504,0.101 0.703,0.297 0.19261,0.188926 0.29987,0.448216 0.297,0.718 0.002,0.265236 -0.10541,0.519569 -0.297,0.703 -0.18322,0.191891 -0.43769,0.299398 -0.703,0.297 -0.305,0 -0.547,-0.097 -0.735,-0.297 -0.18369,-0.187396 -0.28455,-0.44063 -0.28,-0.703 z m 0,3.438 c 0,-0.352 0.164,-0.531 0.5,-0.531 h 0.953 c 0.332,0 0.5,0.18 0.5,0.53 v 11.86 c 0,0.336 -0.168,0.5 -0.5,0.5 h -0.953 c -0.336,0 -0.5,-0.164 -0.5,-0.5 z m 10.113,11.891 c 0,0.335 0.164,0.5 0.5,0.5 h 0.765 c 0.332,0 0.5,-0.165 0.5,-0.5 v -11.033 c 0,-0.238 0.11,-0.379 0.329,-0.422 0.062,-0.008 0.28,-0.015 0.656,-0.015 h 1.89 c 0.438,0 0.657,-0.118 0.657,-0.36 v -0.234 c 0,-0.238 -0.278,-0.36 -0.828,-0.36 h -7.344 c -0.574,0 -0.86,0.122 -0.86,0.36 v 0.234 c 0,0.242 0.223,0.36 0.672,0.36 h 2.61 c 0.3,0 0.453,0.148 0.453,0.437 z m 12.295,0 c 0,0.335 0.164,0.5 0.5,0.5 h 0.766 c 0.332,0 0.5,-0.165 0.5,-0.5 v -11.033 c 0,-0.238 0.11,-0.379 0.328,-0.422 0.062,-0.008 0.281,-0.015 0.656,-0.015 h 1.89 c 0.438,0 0.657,-0.118 0.657,-0.36 v -0.234 c 0,-0.238 -0.277,-0.36 -0.828,-0.36 h -7.344 c -0.574,0 -0.86,0.122 -0.86,0.36 v 0.234 c 0,0.242 0.223,0.36 0.673,0.36 h 2.61 c 0.3,0 0.452,0.148 0.452,0.437 z"
     id="path1-7"
     sodipodi:nodetypes="cccscscsccccccccscscccscccssssssssssccssssssccsscccscsssssscsssscssscsssccccssccccssccscccsccccsscssccsccscccssccsssccsccscsccccsssssssccsssssccsccccsssssssccssssscscssssssccssscssscsssccccsscssssssssssccssssssccsscccscssssssccssscssscsssccccsscssccsccscccscccsccssccsccccccccccccccsssssssssssssscssssssssssssssssscssssssssssss"
     style="opacity:0.5;fill:#ffffff;fill-opacity:1;stroke:none" />
  <path
     d="m 16.7403,17.928312 c 0.11401,0.062 0.30501,0.226 0.57801,0.484 0.19599,0.156 0.17199,0.422 -0.078,0.797 -1.56199,2.437 -3.965001,3.656 -7.20299,3.656 -2.5740005,0 -4.7660005,-0.988 -6.5780005,-2.969 -1.805,-1.976 -2.70299998,-4.379 -2.70299998,-7.203 0,-2.8 0.89799998,-5.195 2.70299998,-7.187 1.812,-1.989 4.004,-2.985 6.5780005,-2.985 3.237989,0 5.566999,1.18 6.984,3.532 0.23899,0.398 0.23899,0.671 0,0.828 -0.13601,0.086 -0.277,0.168 -0.42101,0.25 -0.11515,0.06422 -0.24336,0.101484 -0.375,0.109 -0.15699,0 -0.266,-0.117 -0.32899,-0.36 -0.15601,-0.769 -0.761011,-1.5 -1.812011,-2.187 -1.16232,-0.785007 -2.53546,-1.198902 -3.937989,-1.187 -2.0110005,0 -3.6560005,0.87 -4.9370005,2.609 -1.273,1.742 -1.906,3.914 -1.906,6.516 0,2.71 0.64,4.914 1.922,6.609 1.289,1.7 2.921,2.547 4.8900005,2.547 1.539989,0 2.894989,-0.41 4.062999,-1.234 0.69499,-0.5 1.22199,-1.047 1.577991,-1.641 0.094,-0.219 0.18,-0.43 0.26501,-0.64 0.13299,-0.301 0.28999,-0.454 0.47,-0.454 0.062,0 0.14399,0.04 0.25,0.11 z m 13.525,-7.875 c 0,-0.332 0.164,-0.5 0.5,-0.5 h 0.953 c 0.351,0 0.531,0.168 0.531,0.5 v 11.89 c 0,0.336 -0.18,0.5 -0.531,0.5 h -0.953 c -0.336,0 -0.5,-0.164 -0.5,-0.5 v -5.156 c 0,-0.344 -0.188,-0.516 -0.563,-0.516 h -4.983 c -0.555,0 -0.828,0.262 -0.828,0.782 l 0.03,4.89 c 0,0.336 -0.167,0.5 -0.5,0.5 h -0.952 c -0.336,0 -0.5,-0.164 -0.5,-0.5 V 1.865311 c 0,-0.352 0.164,-0.531 0.5,-0.531 h 0.953 c 0.332,0 0.5,0.18 0.5,0.531 l -0.031,12.781001 c 0,0.438 0.187,0.657 0.562,0.657 h 5.313 c 0.25,0 0.394,-0.02 0.437,-0.063 0.04,-0.039 0.063,-0.172 0.063,-0.39 z m 14.192,-0.532 h -5.578 c -1.261,-0.02 -1.89,0.7 -1.89,2.157 v 9.015 c 0,1.168 0.648,1.75 1.953,1.75 h 5.422 c 0.332,0 0.5,-0.144 0.5,-0.437 0,-0.32 -0.18,-0.485 -0.532,-0.485 h -2.343 c -0.969,-0.02 -1.649,-0.031 -2.032,-0.031 -0.656,0 -0.984,-0.305 -0.984,-0.922 v -3.515 c 0,-0.52 0.274,-0.782 0.828,-0.782 0.457,0 1.051,-0.004 1.781,-0.015 h 1.782 c 0.351,0 0.531,-0.16 0.531,-0.485 0,-0.289 -0.164,-0.437 -0.484,-0.437 -0.512,0 -1.18,-0.008 -2,-0.031 h -1.875 c -0.375,0 -0.563,-0.22 -0.563,-0.657 v -3.047 c 0,-0.3 0.113,-0.562 0.344,-0.78 0.226,-0.227 0.488,-0.345 0.781,-0.345 0.676,0.024 1.414,0.024 2.219,0 0.72392,-0.0156 1.44794,-0.0256 2.172,-0.03 0.414,0 0.625,-0.15 0.625,-0.454 0,-0.312 -0.219,-0.469 -0.657,-0.469 z m 7.074,17.907001 2.281,-5.375001 c 0.102,-0.25 0.094,-0.516 -0.031,-0.797 -1.54859,-3.676903 -3.059,-7.369768 -4.531,-11.078 -0.157,-0.415 -0.047,-0.625 0.328,-0.625 h 0.89 c 0.25801,0 0.457,0.156 0.594,0.468 l 3.61,8.594 c 0.082,0.2 0.20301,0.297 0.359,0.297 0.133,0 0.242,-0.098 0.328,-0.297 0.43801,-1.125 1.066,-2.555 1.89,-4.297 0.68737,-1.440326 1.32344,-2.90458 1.90701,-4.39 0.113,-0.29 0.32,-0.438 0.625,-0.438 0.094,0 0.16399,0.059 0.219,0.172 0.062,0.105 0.078,0.203 0.047,0.297 -0.59401,1.625 -1.82501,4.512 -3.68801,8.656 -1.93,4.352 -3.18,7.270001 -3.75,8.750001 -0.148,0.351999 -0.34,0.530999 -0.578,0.530999 -0.375,0 -0.563,-0.078 -0.563,-0.234 0,-0.063 0.02,-0.139999 0.063,-0.233999 z m 19.883,-8.485001 h -4.14 c -0.345,0 -0.563,0.168 -0.657,0.5 -0.242,0.774 -0.496,1.586 -0.766,2.438 -0.125,0.375 -0.32,0.562 -0.578,0.562 -0.406,0 -0.543,-0.219 -0.406,-0.656 l 3.5,-11.281 c 0.238,-0.758 0.703,-1.141 1.39,-1.141 0.633,0 1.051,0.262 1.25,0.781 0.97,2.688 2.38,6.543 4.235,11.563 0.062,0.18 0.062,0.336 0,0.469 -0.063,0.18 -0.203,0.265 -0.422,0.265 h -0.937 c -0.399,0 -0.668,-0.187 -0.813,-0.562 l -0.86,-2.453 c -0.093,-0.32 -0.359,-0.485 -0.796,-0.485 z m -3.938,-0.89 h 3.875 c 0.258,0 0.344,-0.125 0.25,-0.375 -0.62527,-1.78866 -1.27098,-3.57011 -1.937,-5.344 -0.117,-0.352 -0.262,-0.531 -0.438,-0.531 -0.18,0 -0.32,0.156 -0.422,0.468 -0.335,1.075 -0.855,2.79 -1.562,5.14 -0.148,0.43 -0.07,0.642 0.234,0.642 z m 12.176,3.702 v -10.608 c 0,-0.488 0.14,-0.875 0.422,-1.156 0.27878,-0.285616 0.66295,-0.443699 1.062,-0.437 0.645,0 1.176,0.308 1.594,0.921 1.008,1.524 2.66,4.024 4.953,7.5 0.156,0.211 0.274,0.313 0.36,0.313 0.093,0 0.14,-0.188 0.14,-0.563 v -7.28 c 0,-0.595 0.16,-0.891 0.485,-0.891 0.312,0 0.468,0.296 0.468,0.89 v 11.14 c 0,0.555 -0.18,0.829 -0.531,0.829 -0.18,0 -0.34,-0.098 -0.484,-0.297 l -6.61,-10.312 c -0.218,-0.352 -0.418,-0.532 -0.593,-0.532 -0.2,0 -0.297,0.219 -0.297,0.657 v 9.828 c 0,0.437 -0.18,0.656 -0.532,0.656 -0.293,0 -0.437,-0.219 -0.437,-0.656 z m 14.191,0 v -10.608 c 0,-0.488 0.141,-0.875 0.42201,-1.156 0.27901,-0.285872 0.6636,-0.443976 1.063,-0.437 0.644,0 1.176,0.308 1.593,0.921 1.008,1.524 2.66,4.024 4.954,7.5 0.156,0.211 0.273,0.313 0.359,0.313 0.094,0 0.14,-0.188 0.14,-0.563 v -7.28 c 0,-0.595 0.16,-0.891 0.485,-0.891 0.312,0 0.469,0.296 0.469,0.89 v 11.14 c 0,0.555 -0.18,0.829 -0.532,0.829 -0.18,0 -0.34,-0.098 -0.484,-0.297 l -6.61,-10.312 c -0.218,-0.352 -0.417,-0.532 -0.593,-0.532 -0.2,0 -0.297,0.219 -0.297,0.657 v 9.828 c 0,0.437 -0.18,0.656 -0.531,0.656 -0.29301,0 -0.43801,-0.219 -0.43801,-0.656 z m 21.66101,-12.234 h -5.579 c -1.261,-0.02 -1.89,0.7 -1.89,2.157 v 9.015 c 0,1.168 0.648,1.75 1.953,1.75 h 5.422 c 0.332,0 0.5,-0.144 0.5,-0.437 0,-0.32 -0.18,-0.485 -0.531,-0.485 h -2.344 c -0.6769,-0.01612 -1.35392,-0.02646 -2.031,-0.031 -0.657,0 -0.985,-0.305 -0.985,-0.922 v -3.515 c 0,-0.52 0.274,-0.782 0.828,-0.782 0.457,0 1.051,-0.004 1.782,-0.015 h 1.78 c 0.352,0 0.532,-0.16 0.532,-0.485 0,-0.289 -0.164,-0.437 -0.484,-0.437 -0.512,0 -1.18,-0.008 -2,-0.031 h -1.875 c -0.375,0 -0.563,-0.22 -0.563,-0.657 v -3.047 c 0,-0.3 0.113,-0.562 0.344,-0.78 0.226,-0.227 0.488,-0.345 0.781,-0.345 0.676,0.024 1.414,0.024 2.219,0 0.72391,-0.0156 1.44793,-0.0256 2.172,-0.03 0.414,0 0.625,-0.15 0.625,-0.454 0,-0.312 -0.219,-0.469 -0.656,-0.469 z m 21.685,0.532 c 0,-0.332 0.165,-0.5 0.5,-0.5 h 0.954 c 0.351,0 0.531,0.168 0.531,0.5 v 11.89 c 0,0.336 -0.18,0.5 -0.531,0.5 h -0.953 c -0.336,0 -0.5,-0.164 -0.5,-0.5 v -5.156 c 0,-0.344 -0.188,-0.516 -0.563,-0.516 h -4.984 c -0.555,0 -0.828,0.262 -0.828,0.782 l 0.031,4.89 c 0,0.336 -0.168,0.5 -0.5,0.5 h -0.953 c -0.336,0 -0.5,-0.164 -0.5,-0.5 V 1.865311 c 0,-0.352 0.164,-0.531 0.5,-0.531 h 0.953 c 0.332,0 0.5,0.18 0.5,0.531 l -0.031,12.781001 c 0,0.438 0.187,0.657 0.562,0.657 h 5.313 c 0.25,0 0.394,-0.02 0.437,-0.063 0.04,-0.039 0.063,-0.172 0.063,-0.39 z m 14.194,-0.532 h -5.579 c -1.261,-0.02 -1.89,0.7 -1.89,2.157 v 9.015 c 0,1.168 0.648,1.75 1.953,1.75 h 5.422 c 0.332,0 0.5,-0.144 0.5,-0.437 0,-0.32 -0.18,-0.485 -0.531,-0.485 h -2.344 c -0.6769,-0.01612 -1.35392,-0.02646 -2.031,-0.031 -0.657,0 -0.985,-0.305 -0.985,-0.922 v -3.515 c 0,-0.52 0.274,-0.782 0.828,-0.782 0.457,0 1.051,-0.004 1.782,-0.015 h 1.78 c 0.352,0 0.532,-0.16 0.532,-0.485 0,-0.289 -0.164,-0.437 -0.484,-0.437 -0.512,0 -1.18,-0.008 -2,-0.031 h -1.875 c -0.375,0 -0.563,-0.22 -0.563,-0.657 v -3.047 c 0,-0.3 0.114,-0.562 0.344,-0.78 0.227,-0.227 0.488,-0.345 0.781,-0.345 0.676,0.024 1.414,0.024 2.219,0 0.72391,-0.0156 1.44793,-0.0256 2.172,-0.03 0.414,0 0.625,-0.15 0.625,-0.454 0,-0.312 -0.219,-0.469 -0.656,-0.469 z m 10.339,0.657 c -0.157,-0.415 -0.047,-0.625 0.328,-0.625 h 0.89 c 0.25,0 0.438,0.156 0.563,0.468 0.75,2 1.894,5.055 3.437,9.157 0.051,0.18 0.172,0.265 0.36,0.265 0.133,0 0.238,-0.086 0.312,-0.265 1.313,-3.29 2.5,-6.352 3.563,-9.188 0.101,-0.289 0.3,-0.437 0.594,-0.437 0.113,0 0.195,0.058 0.25,0.171 0.0481,0.09106 0.0643,0.195642 0.046,0.297 -0.71,1.938 -2.242,5.938 -4.593,12 -0.106,0.282 -0.313,0.422 -0.625,0.422 -0.375,0 -0.641,-0.207 -0.797,-0.625 -0.7,-1.758 -1.371,-3.52 -2.016,-5.281 -0.043,0.125 -0.758,1.953 -2.14,5.484 -0.094,0.282 -0.293,0.422 -0.594,0.422 -0.375,0 -0.653,-0.207 -0.828,-0.625 -1.48734,-3.863241 -2.93011,-7.743499 -4.328,-11.64 -0.137,-0.415 -0.028,-0.625 0.328,-0.625 h 0.89 c 0.282,0 0.477,0.156 0.594,0.468 0.727,2 1.863,5.055 3.406,9.157 0.063,0.18 0.18,0.265 0.36,0.265 0.156,0 0.265,-0.086 0.328,-0.265 0.219,-0.489 0.726,-1.782 1.531,-3.875 -0.45,-1.207 -1.07,-2.915 -1.86,-5.125 z m 15.103,-3.532 c 0,-0.281 0.094,-0.52 0.281,-0.718 0.19152,-0.199165 0.45888,-0.307202 0.735,-0.297 0.27,0 0.504,0.101 0.703,0.297 0.19261,0.188926 0.29987,0.448216 0.297,0.718 0.002,0.265236 -0.10541,0.519569 -0.297,0.703 -0.18322,0.191891 -0.43769,0.299398 -0.703,0.297 -0.305,0 -0.547,-0.097 -0.735,-0.297 -0.18369,-0.187396 -0.28455,-0.44063 -0.28,-0.703 z m 0,3.438 c 0,-0.352 0.164,-0.531 0.5,-0.531 h 0.953 c 0.332,0 0.5,0.18 0.5,0.53 v 11.86 c 0,0.336 -0.168,0.5 -0.5,0.5 h -0.953 c -0.336,0 -0.5,-0.164 -0.5,-0.5 z m 10.113,11.891 c 0,0.335 0.164,0.5 0.5,0.5 h 0.765 c 0.332,0 0.5,-0.165 0.5,-0.5 v -11.033 c 0,-0.238 0.11,-0.379 0.329,-0.422 0.062,-0.008 0.28,-0.015 0.656,-0.015 h 1.89 c 0.438,0 0.657,-0.118 0.657,-0.36 v -0.234 c 0,-0.238 -0.278,-0.36 -0.828,-0.36 h -7.344 c -0.574,0 -0.86,0.122 -0.86,0.36 v 0.234 c 0,0.242 0.223,0.36 0.672,0.36 h 2.61 c 0.3,0 0.453,0.148 0.453,0.437 z m 12.295,0 c 0,0.335 0.164,0.5 0.5,0.5 h 0.766 c 0.332,0 0.5,-0.165 0.5,-0.5 v -11.033 c 0,-0.238 0.11,-0.379 0.328,-0.422 0.062,-0.008 0.281,-0.015 0.656,-0.015 h 1.89 c 0.438,0 0.657,-0.118 0.657,-0.36 v -0.234 c 0,-0.238 -0.277,-0.36 -0.828,-0.36 h -7.344 c -0.574,0 -0.86,0.122 -0.86,0.36 v 0.234 c 0,0.242 0.223,0.36 0.673,0.36 h 2.61 c 0.3,0 0.452,0.148 0.452,0.437 z"
     id="path1-7-5"
     sodipodi:nodetypes="cccscscsccccccccscscccscccssssssssssccssssssccsscccscsssssscsssscssscsssccccssccccssccscccsccccsscssccsccscccssccsssccsccscsccccsssssssccsssssccsccccsssssssccssssscscssssssccssscssscsssccccsscssssssssssccssssssccsscccscssssssccssscssscsssccccsscssccsccscccscccsccssccsccccccccccccccsssssssssssssscssssssssssssssssscssssssssssss"
     style="opacity:0.6;fill:#00000f;fill-opacity:1" />
</svg>
