<svg xmlns="http://www.w3.org/2000/svg" width="300" viewBox="0 0 224.88 112.5" height="150" version="1.0"><path d="M4.795 21.697a4.944 4.944 0 0 1 1.359 0c.332.043.566.246.703.61.145.366 1.016 2.808 2.61 7.327.894 2.555 1.738 4.758 2.53 6.61.114.281.212.422.298.422.07 0 .16-.14.265-.422a267.72 267.72 0 0 0 2.422-6.063l-2.812-7.828a.43.43 0 0 1 .015-.406.417.417 0 0 1 .313-.25 4.95 4.95 0 0 1 1.36 0c.331.043.57.262.718.656 1.258 3.438 2.926 8.07 5 13.89.144.368.254.548.328.548.082 0 .203-.18.36-.547 1.187-3.02 3.038-7.738 5.562-14.156.125-.301.441-.454.953-.454.156 0 .266.079.328.235a.649.649 0 0 1 0 .484L19.67 41.26c-.106.239-.203.36-.297.36-.117 0-.227-.14-.328-.422-1.063-2.863-2.2-5.953-3.407-9.266l-3.671 9.328c-.106.239-.204.36-.297.36-.106 0-.215-.14-.328-.422a2091.397 2091.397 0 0 1-6.875-18.844.584.584 0 0 1 .015-.406.388.388 0 0 1 .313-.25Zm34.365 6.375h-5.578c-1.262-.02-1.89.7-1.89 2.156v9.016c0 1.168.648 1.75 1.952 1.75h5.422c.332 0 .5-.145.5-.438 0-.32-.18-.484-.531-.484H36.69c-.969-.02-1.648-.031-2.031-.031-.656 0-.985-.305-.985-.922v-3.516c0-.52.274-.781.829-.781.457 0 1.05-.004 1.78-.016h1.782c.352 0 .531-.16.531-.484 0-.29-.164-.438-.484-.438a71.6 71.6 0 0 1-2-.03h-1.875c-.375 0-.563-.22-.563-.657V30.15c0-.3.114-.562.344-.781.227-.227.488-.344.781-.344.676.023 1.415.023 2.22 0a140.31 140.31 0 0 1 2.171-.031c.414 0 .625-.149.625-.453 0-.313-.219-.47-.656-.47Zm6.839 1.562v9.485c0 .617.226.922.687.922h1.5c1.313 0 2.407-.52 3.282-1.563.875-1.05 1.312-2.383 1.312-4 0-1.363-.453-2.61-1.36-3.734-.905-1.125-2-1.688-3.28-1.688h-1.485c-.437 0-.656.196-.656.578Zm2.547 11.36h-3.5c-.43 0-.703-.047-.828-.14-.118-.102-.172-.384-.172-.845V20.416c0-.352.164-.532.5-.532h.953c.332 0 .5.18.5.532v7.156c0 .355.187.531.562.531h1.422c1.852 0 3.469.586 4.844 1.75 1.375 1.168 2.063 2.625 2.063 4.375 0 2-.575 3.633-1.72 4.89-1.148 1.25-2.687 1.876-4.624 1.876Zm23.639-17.578v15.437c0 .219.066.438.203.656.144.22.316.329.516.329h3.171c2.051 0 3.782-.79 5.188-2.375 1.406-1.594 2.11-3.688 2.11-6.282 0-2.468-.727-4.492-2.173-6.078-1.386-1.476-3.054-2.219-5-2.219h-3.468c-.368 0-.547.18-.547.532Zm-1.594-1.688h5.719c2.644 0 4.879.883 6.703 2.64 1.875 1.813 2.812 4.106 2.812 6.876 0 2.762-.992 5.094-2.968 7-1.899 1.836-4.168 2.75-6.813 2.75h-5.453c-.336 0-.5-.164-.5-.5V22.228c0-.332.164-.5.5-.5Zm27.349 6.344h-5.578c-1.262-.02-1.89.7-1.89 2.156v9.016c0 1.168.648 1.75 1.952 1.75h5.422c.332 0 .5-.145.5-.438 0-.32-.18-.484-.53-.484H95.47c-.968-.02-1.648-.031-2.03-.031-.657 0-.985-.305-.985-.922v-3.516c0-.52.273-.781.828-.781.457 0 1.05-.004 1.781-.016h1.781c.352 0 .532-.16.532-.484 0-.29-.164-.438-.485-.438a71.6 71.6 0 0 1-2-.03h-1.875c-.375 0-.562-.22-.562-.657V30.15c0-.3.113-.562.343-.781.227-.227.489-.344.782-.344a35.59 35.59 0 0 0 2.218 0 140.31 140.31 0 0 1 2.172-.031c.414 0 .625-.149.625-.453 0-.313-.218-.47-.656-.47Zm4.761.656c-.156-.414-.047-.625.328-.625h.89c.282 0 .477.156.595.469.726 2 1.863 5.055 3.406 9.156.062.18.18.266.36.266.155 0 .265-.086.327-.266.707-1.789 1.89-4.851 3.547-9.187.125-.29.332-.438.625-.438.102 0 .18.059.235.172.062.106.07.203.03.297l-4.593 12c-.094.281-.305.422-.625.422-.375 0-.64-.207-.797-.625Zm22.407-.656h-5.578c-1.262-.02-1.89.7-1.89 2.156v9.016c0 1.168.648 1.75 1.953 1.75h5.422c.332 0 .5-.145.5-.438 0-.32-.18-.484-.532-.484h-2.343c-.97-.02-1.649-.031-2.032-.031-.656 0-.984-.305-.984-.922v-3.516c0-.52.273-.781.828-.781.457 0 1.05-.004 1.781-.016h1.782c.351 0 .53-.16.53-.484 0-.29-.163-.438-.484-.438-.511 0-1.18-.007-2-.03h-1.875c-.375 0-.562-.22-.562-.657V30.15c0-.3.113-.562.344-.781.226-.227.488-.344.78-.344.677.023 1.415.023 2.22 0a140.31 140.31 0 0 1 2.172-.031c.414 0 .625-.149.625-.453 0-.313-.22-.47-.657-.47Zm4.886-7.656c0-.352.164-.532.5-.532h.953c.332 0 .5.18.5.532v18.703c0 .617.227.922.688.922h1.187c.207 0 .313.152.313.453 0 .336-.07.5-.203.5h-2.422c-.461 0-.828-.156-1.11-.469-.273-.32-.406-.707-.406-1.156Zm7.292 14.031c0-1.863.593-3.453 1.78-4.766 1.196-1.312 2.634-1.968 4.313-1.968 1.707 0 3.157.656 4.344 1.968 1.195 1.313 1.797 2.903 1.797 4.766 0 1.855-.602 3.437-1.797 4.75-1.187 1.312-2.637 1.969-4.344 1.969-1.68 0-3.117-.657-4.312-1.97-1.188-1.312-1.781-2.894-1.781-4.75Zm1.984 0c0 1.637.398 3.031 1.203 4.187.813 1.157 1.79 1.735 2.938 1.735 1.144 0 2.125-.578 2.937-1.735.813-1.156 1.219-2.55 1.219-4.187 0-1.664-.406-3.078-1.219-4.234-.812-1.157-1.793-1.735-2.937-1.735-1.149 0-2.125.578-2.938 1.735-.805 1.156-1.203 2.57-1.203 4.234Zm16.676 4.828V29.76c0-.613.226-.921.687-.921h1.5c1.313 0 2.406.53 3.281 1.593.875 1.055 1.313 2.383 1.313 3.985 0 1.367-.453 2.61-1.36 3.734-.906 1.125-2 1.688-3.28 1.688h-1.485c-.438 0-.656-.188-.656-.563Zm2.547-11.375h-3.5c-.43 0-.704.047-.829.14-.117.094-.171.383-.171.86v16.813c0 .332.164.5.5.5h.953c.332 0 .5-.168.5-.5v-4.391c0-.352.187-.531.562-.531h1.422c1.852 0 3.469-.582 4.844-1.75 1.375-1.164 2.062-2.63 2.062-4.39 0-1.978-.574-3.599-1.718-4.86-1.149-1.258-2.688-1.89-4.625-1.89Zm22.191.203c1.164 0 1.75.64 1.75 1.922v10.469c0 .336-.168.5-.5.5h-.953c-.355 0-.531-.164-.531-.5v-10.11c0-.28-.078-.421-.235-.421-.18 0-.324.14-.437.421l-3.953 10.375c-.074.22-.164.329-.266.329-.094 0-.183-.11-.265-.329a970.24 970.24 0 0 0-3.86-10.078c-.156-.375-.324-.562-.5-.562-.219 0-.328.18-.328.531v9.953c0 .262-.168.39-.5.39-.336 0-.5-.14-.5-.421V29.697c0-.426.148-.8.453-1.125.313-.332.692-.5 1.14-.5.72 0 1.223.355 1.516 1.062.727 1.649 1.739 4.118 3.032 7.407.093.242.187.36.28.36.102 0 .204-.118.298-.36a395.215 395.215 0 0 0 2.797-7.344c.27-.707.789-1.07 1.562-1.094Zm13.9-.031h-5.578c-1.262-.02-1.89.7-1.89 2.156v9.016c0 1.168.648 1.75 1.953 1.75h5.421c.332 0 .5-.145.5-.438 0-.32-.18-.484-.53-.484h-2.345c-.968-.02-1.648-.031-2.03-.031-.657 0-.985-.305-.985-.922v-3.516c0-.52.273-.781.828-.781.457 0 1.05-.004 1.781-.016h1.781c.352 0 .532-.16.532-.484 0-.29-.164-.438-.485-.438-.511 0-1.18-.007-2-.03h-1.875c-.375 0-.562-.22-.562-.657V30.15c0-.3.113-.562.344-.781.226-.227.488-.344.78-.344.677.023 1.415.023 2.22 0a140.31 140.31 0 0 1 2.171-.031c.415 0 .625-.149.625-.453 0-.313-.218-.47-.656-.47Zm4.886 12.234v-10.61c0-.487.14-.874.422-1.155a1.45 1.45 0 0 1 1.063-.438c.644 0 1.175.309 1.593.922 1.008 1.523 2.66 4.023 4.953 7.5.157.211.274.313.36.313.094 0 .14-.188.14-.563v-7.281c0-.594.16-.89.485-.89.312 0 .469.296.469.89v11.14c0 .555-.18.829-.532.829-.18 0-.34-.098-.484-.297l-6.61-10.313c-.218-.351-.417-.531-.593-.531-.2 0-.297.219-.297.656v9.828c0 .438-.18.657-.531.657-.293 0-.438-.22-.438-.657Zm17.426.219c0 .336.164.5.5.5h.766c.332 0 .5-.164.5-.5V29.494c0-.238.109-.38.328-.422.062-.008.281-.016.656-.016h1.89c.438 0 .657-.117.657-.36v-.233c0-.239-.278-.36-.828-.36h-7.344c-.574 0-.86.121-.86.36v.234c0 .242.223.36.672.36h2.61c.3 0 .453.148.453.437ZM27.121 79.203c.114.062.305.226.578.484.196.156.172.422-.078.797-1.562 2.437-3.965 3.656-7.203 3.656-2.574 0-4.766-.988-6.578-2.969-1.805-1.976-2.703-4.379-2.703-7.203 0-2.8.898-5.195 2.703-7.187 1.812-1.989 4.004-2.985 6.578-2.985 3.238 0 5.567 1.18 6.984 3.532.239.398.239.671 0 .828-.136.086-.277.168-.421.25a.872.872 0 0 1-.375.109c-.157 0-.266-.117-.329-.36-.156-.769-.761-1.5-1.812-2.187a6.931 6.931 0 0 0-3.938-1.187c-2.011 0-3.656.87-4.937 2.609-1.273 1.742-1.906 3.914-1.906 6.516 0 2.71.64 4.914 1.922 6.609 1.289 1.7 2.921 2.547 4.89 2.547 1.54 0 2.895-.41 4.063-1.234.695-.5 1.222-1.047 1.578-1.641.094-.219.18-.43.265-.64.133-.301.29-.454.47-.454.062 0 .144.04.25.11Zm13.525-7.875c0-.332.164-.5.5-.5h.953c.351 0 .531.168.531.5v11.89c0 .336-.18.5-.531.5h-.953c-.336 0-.5-.164-.5-.5v-5.156c0-.344-.188-.516-.563-.516H35.1c-.555 0-.828.262-.828.782l.03 4.89c0 .336-.167.5-.5.5h-.952c-.336 0-.5-.164-.5-.5V63.14c0-.352.164-.531.5-.531h.953c.332 0 .5.18.5.531l-.031 12.781c0 .438.187.657.562.657h5.313c.25 0 .394-.02.437-.063.04-.039.063-.172.063-.39Zm14.192-.532H49.26c-1.261-.02-1.89.7-1.89 2.157v9.015c0 1.168.648 1.75 1.953 1.75h5.422c.332 0 .5-.144.5-.437 0-.32-.18-.485-.532-.485H52.37c-.969-.02-1.649-.031-2.032-.031-.656 0-.984-.305-.984-.922v-3.515c0-.52.274-.782.828-.782.457 0 1.051-.004 1.781-.015h1.782c.351 0 .531-.16.531-.485 0-.289-.164-.437-.484-.437-.512 0-1.18-.008-2-.031h-1.875c-.375 0-.563-.22-.563-.657v-3.047c0-.3.113-.562.344-.78.226-.227.488-.345.781-.345.676.024 1.414.024 2.219 0a140.31 140.31 0 0 1 2.172-.03c.414 0 .625-.15.625-.454 0-.312-.219-.469-.657-.469Zm7.074 17.907 2.281-5.375c.102-.25.094-.516-.031-.797a577.025 577.025 0 0 1-4.531-11.078c-.157-.415-.047-.625.328-.625h.89c.258 0 .457.156.594.468l3.61 8.594c.082.2.203.297.359.297.133 0 .242-.098.328-.297.438-1.125 1.066-2.555 1.89-4.297a67.492 67.492 0 0 0 1.907-4.39c.113-.29.32-.438.625-.438.094 0 .164.059.219.172.062.105.078.203.047.297-.594 1.625-1.825 4.512-3.688 8.656-1.93 4.352-3.18 7.27-3.75 8.75-.148.352-.34.531-.578.531-.375 0-.563-.078-.563-.234 0-.063.02-.14.063-.234Zm19.883-8.485h-4.14c-.345 0-.563.168-.657.5-.242.774-.496 1.586-.766 2.438-.125.375-.32.562-.578.562-.406 0-.543-.219-.406-.656l3.5-11.281c.238-.758.703-1.141 1.39-1.141.633 0 1.051.262 1.25.781.97 2.688 2.38 6.543 4.235 11.563.062.18.062.336 0 .469-.063.18-.203.265-.422.265h-.937c-.399 0-.668-.187-.813-.562l-.86-2.453c-.093-.32-.359-.485-.796-.485Zm-3.938-.89h3.875c.258 0 .344-.125.25-.375a248.501 248.501 0 0 0-1.937-5.344c-.117-.352-.262-.531-.438-.531-.18 0-.32.156-.422.468-.335 1.075-.855 2.79-1.562 5.14-.148.43-.07.642.234.642Zm12.176 3.702V72.422c0-.488.14-.875.422-1.156a1.45 1.45 0 0 1 1.062-.437c.645 0 1.176.308 1.594.921 1.008 1.524 2.66 4.024 4.953 7.5.156.211.274.313.36.313.093 0 .14-.188.14-.563v-7.28c0-.595.16-.891.485-.891.312 0 .468.296.468.89v11.14c0 .555-.18.829-.531.829-.18 0-.34-.098-.484-.297l-6.61-10.312c-.218-.352-.418-.532-.593-.532-.2 0-.297.219-.297.657v9.828c0 .437-.18.656-.532.656-.293 0-.437-.219-.437-.656Zm14.191 0V72.422c0-.488.141-.875.422-1.156a1.45 1.45 0 0 1 1.063-.437c.644 0 1.176.308 1.593.921 1.008 1.524 2.66 4.024 4.954 7.5.156.211.273.313.359.313.094 0 .14-.188.14-.563v-7.28c0-.595.16-.891.485-.891.312 0 .469.296.469.89v11.14c0 .555-.18.829-.532.829-.18 0-.34-.098-.484-.297l-6.61-10.312c-.218-.352-.417-.532-.593-.532-.2 0-.297.219-.297.657v9.828c0 .437-.18.656-.531.656-.293 0-.438-.219-.438-.656Zm21.661-12.234h-5.579c-1.261-.02-1.89.7-1.89 2.157v9.015c0 1.168.648 1.75 1.953 1.75h5.422c.332 0 .5-.144.5-.437 0-.32-.18-.485-.531-.485h-2.344a118.73 118.73 0 0 0-2.031-.031c-.657 0-.985-.305-.985-.922v-3.515c0-.52.274-.782.828-.782.457 0 1.051-.004 1.782-.015h1.78c.352 0 .532-.16.532-.485 0-.289-.164-.437-.484-.437-.512 0-1.18-.008-2-.031h-1.875c-.375 0-.563-.22-.563-.657v-3.047c0-.3.113-.562.344-.78.226-.227.488-.345.781-.345.676.024 1.414.024 2.219 0a140.31 140.31 0 0 1 2.172-.03c.414 0 .625-.15.625-.454 0-.312-.219-.469-.656-.469Zm21.685.532c0-.332.165-.5.5-.5h.954c.351 0 .531.168.531.5v11.89c0 .336-.18.5-.531.5h-.953c-.336 0-.5-.164-.5-.5v-5.156c0-.344-.188-.516-.563-.516h-4.984c-.555 0-.828.262-.828.782l.031 4.89c0 .336-.168.5-.5.5h-.953c-.336 0-.5-.164-.5-.5V63.14c0-.352.164-.531.5-.531h.953c.332 0 .5.18.5.531l-.031 12.781c0 .438.187.657.562.657h5.313c.25 0 .394-.02.437-.063.04-.039.063-.172.063-.39Zm14.194-.532h-5.579c-1.261-.02-1.89.7-1.89 2.157v9.015c0 1.168.648 1.75 1.953 1.75h5.422c.332 0 .5-.144.5-.437 0-.32-.18-.485-.531-.485h-2.344a118.73 118.73 0 0 0-2.031-.031c-.657 0-.985-.305-.985-.922v-3.515c0-.52.274-.782.828-.782.457 0 1.051-.004 1.782-.015h1.78c.352 0 .532-.16.532-.485 0-.289-.164-.437-.484-.437-.512 0-1.18-.008-2-.031h-1.875c-.375 0-.563-.22-.563-.657v-3.047c0-.3.114-.562.344-.78.227-.227.488-.345.781-.345.676.024 1.414.024 2.219 0a140.31 140.31 0 0 1 2.172-.03c.414 0 .625-.15.625-.454 0-.312-.219-.469-.656-.469Zm10.339.657c-.157-.415-.047-.625.328-.625h.89c.25 0 .438.156.563.468.75 2 1.894 5.055 3.437 9.157.051.18.172.265.36.265.133 0 .238-.086.312-.265 1.313-3.29 2.5-6.352 3.563-9.188.101-.289.3-.437.594-.437.113 0 .195.058.25.171a.46.46 0 0 1 .046.297c-.71 1.938-2.242 5.938-4.593 12-.106.282-.313.422-.625.422-.375 0-.641-.207-.797-.625-.7-1.758-1.371-3.52-2.016-5.281-.043.125-.758 1.953-2.14 5.484-.094.282-.293.422-.594.422-.375 0-.653-.207-.828-.625a538.691 538.691 0 0 1-4.328-11.64c-.137-.415-.028-.625.328-.625h.89c.282 0 .477.156.594.468.727 2 1.863 5.055 3.406 9.157.063.18.18.265.36.265.156 0 .265-.086.328-.265.219-.489.726-1.782 1.531-3.875-.45-1.207-1.07-2.915-1.86-5.125Zm15.103-3.532c0-.281.094-.52.281-.718a.97.97 0 0 1 .735-.297c.27 0 .504.101.703.297a.991.991 0 0 1 .297.718.963.963 0 0 1-.297.703.96.96 0 0 1-.703.297c-.305 0-.547-.097-.735-.297a.98.98 0 0 1-.28-.703Zm0 3.438c0-.352.164-.531.5-.531h.953c.332 0 .5.18.5.53v11.86c0 .336-.168.5-.5.5h-.953c-.336 0-.5-.164-.5-.5Zm10.113 11.891c0 .335.164.5.5.5h.765c.332 0 .5-.165.5-.5V72.217c0-.238.11-.379.329-.422.062-.008.28-.015.656-.015h1.89c.438 0 .657-.118.657-.36v-.234c0-.238-.278-.36-.828-.36h-7.344c-.574 0-.86.122-.86.36v.234c0 .242.223.36.672.36h2.61c.3 0 .453.148.453.437Zm12.295 0c0 .335.164.5.5.5h.766c.332 0 .5-.165.5-.5V72.217c0-.238.11-.379.328-.422.062-.008.281-.015.656-.015h1.89c.438 0 .657-.118.657-.36v-.234c0-.238-.277-.36-.828-.36h-7.344c-.574 0-.86.122-.86.36v.234c0 .242.223.36.673.36h2.61c.3 0 .452.148.452.437Zm0 0"/></svg>