<?xml version="1.0" encoding="UTF-8" standalone="no"?>
<!-- Uploaded to: SVG Repo, www.svgrepo.com, Generator: SVG Repo Mixer Tools -->

<svg
   fill="#000000"
   height="715.94452"
   width="800"
   version="1.1"
   id="Layer_1"
   viewBox="0 0 472.615 422.95765"
   xml:space="preserve"
   sodipodi:docname="coding-html-svgrepo-com.svg"
   inkscape:version="1.3 (0e150ed, 2023-07-21)"
   xmlns:inkscape="http://www.inkscape.org/namespaces/inkscape"
   xmlns:sodipodi="http://sodipodi.sourceforge.net/DTD/sodipodi-0.dtd"
   xmlns="http://www.w3.org/2000/svg"
   xmlns:svg="http://www.w3.org/2000/svg"><defs
   id="defs4" /><sodipodi:namedview
   id="namedview4"
   pagecolor="#ffffff"
   bordercolor="#000000"
   borderopacity="0.25"
   inkscape:showpageshadow="2"
   inkscape:pageopacity="0.0"
   inkscape:pagecheckerboard="0"
   inkscape:deskcolor="#d1d1d1"
   inkscape:zoom="0.3451326"
   inkscape:cx="-143.42314"
   inkscape:cy="440.41044"
   inkscape:window-width="1312"
   inkscape:window-height="449"
   inkscape:window-x="0"
   inkscape:window-y="0"
   inkscape:window-maximized="0"
   inkscape:current-layer="Layer_1"><sodipodi:guide
     position="0,422.95765"
     orientation="0,800"
     id="guide4"
     inkscape:locked="false" /><sodipodi:guide
     position="472.615,422.95765"
     orientation="715.94452,0"
     id="guide5"
     inkscape:locked="false" /><sodipodi:guide
     position="472.615,0"
     orientation="0,-800"
     id="guide6"
     inkscape:locked="false" /><sodipodi:guide
     position="0,0"
     orientation="-715.94452,0"
     id="guide7"
     inkscape:locked="false" /></sodipodi:namedview>&#10;<g
   id="g2"
   transform="matrix(0.98207767,0,0,0.98806752,7.0577534,-13.209076)"
   style="fill:none;stroke:#7e7e7e;stroke-width:5.90769;stroke-linecap:round;stroke-linejoin:round;stroke-dasharray:none;stroke-opacity:1;paint-order:stroke fill markers">&#10;	<g
   id="g1"
   transform="translate(-2.0026059,-8.2707625)"
   style="fill:none;stroke:#7e7e7e;stroke-width:5.90769;stroke-linecap:round;stroke-linejoin:round;stroke-dasharray:none;stroke-opacity:1;paint-order:stroke fill markers">&#10;		<polygon
   points="147.692,433.231 108.308,433.231 108.308,452.923 364.308,452.923 364.308,433.231 324.923,433.231 324.923,384 472.615,384 472.615,324.894 0,324.894 0,384 147.692,384 "
   id="polygon1"
   style="fill:none;stroke:#7e7e7e;stroke-width:5.90769;stroke-linecap:round;stroke-linejoin:round;stroke-dasharray:none;stroke-opacity:1;paint-order:stroke fill markers" />&#10;	</g>&#10;</g>&#10;<g
   id="g4"
   transform="matrix(0.98207767,0,0,0.98806752,1.1576101,1.4636922)"
   style="fill:none;fill-opacity:1;stroke:#7e7e7e;stroke-width:5.90769;stroke-linecap:round;stroke-linejoin:round;stroke-dasharray:none;stroke-opacity:1;paint-order:stroke fill markers">&#10;	<g
   id="g3"
   transform="translate(4.0052119,-16.020847)"
   style="fill:none;fill-opacity:1;stroke:#7e7e7e;stroke-width:5.90769;stroke-linecap:round;stroke-linejoin:round;stroke-dasharray:none;stroke-opacity:1;paint-order:stroke fill markers">&#10;		<path
   d="M 0,19.692 V 305.201 H 472.615 V 19.692 Z m 226.462,29.509 h 49.231 v 19.692 h -49.231 z m -9.847,49.231 H 256 v 19.692 h -39.385 z m -29.538,68.923 v -19.692 h 118.154 v 19.692 z m 98.461,29.539 v 19.692 H 265.846 V 196.894 Z M 187.077,49.201 h 19.692 v 19.692 h -19.692 z m -39.385,0 h 19.692 V 68.893 H 147.692 Z M 49.231,98.432 h 147.692 v 19.692 H 49.231 Z m 41.423,155.499 -13.923,13.923 -41.423,-41.423 41.423,-41.424 13.923,13.923 -27.5,27.5 z m 21.875,25.385 -18.288,-7.307 39.385,-98.462 18.288,7.307 z m 56.894,-11.461 -13.923,-13.924 27.5,-27.499 -27.499,-27.5 13.922,-13.923 41.424,41.424 z m 57.039,-70.961 h 19.692 v 19.692 h -19.692 z m 196.923,68.923 H 236.308 v -19.692 h 187.077 z m 0,-49.231 H 305.231 v -19.692 h 118.154 z m 0,-49.231 h -98.462 v -19.692 h 98.462 z m 0,-49.231 H 275.692 V 98.432 h 147.692 v 19.692 z m 0,-49.23 h -128 V 49.201 h 128 z"
   id="path2"
   style="fill:none;fill-opacity:1;stroke:#7e7e7e;stroke-width:5.90769;stroke-linecap:round;stroke-linejoin:round;stroke-dasharray:none;stroke-opacity:1;paint-order:stroke fill markers" />&#10;	</g>&#10;</g>&#10;</svg>
