<svg xmlns="http://www.w3.org/2000/svg" xmlns:xlink="http://www.w3.org/1999/xlink" width="100" zoomAndPan="magnify" viewBox="0 0 75 74.999997" height="100" preserveAspectRatio="xMidYMid meet" version="1.0"><defs><clipPath id="43adc3a248"><path d="M 0 51 L 75 51 L 75 73 L 0 73 Z M 0 51 " clip-rule="nonzero"/></clipPath><clipPath id="f6bfb11ddf"><path d="M 0 3.375 L 0 72.375 C 0 74.03125 1.34375 75.375 3 75.375 L 72 75.375 C 73.65625 75.375 75 74.03125 75 72.375 L 75 3.375 C 75 1.71875 73.65625 0.375 72 0.375 L 3 0.375 C 1.34375 0.375 0 1.71875 0 3.375 Z M 0 3.375 " clip-rule="nonzero"/></clipPath><clipPath id="4be071d00b"><path d="M 0 3 L 75 3 L 75 49 L 0 49 Z M 0 3 " clip-rule="nonzero"/></clipPath><clipPath id="deae821f3f"><path d="M 0 3.375 L 0 72.375 C 0 74.03125 1.34375 75.375 3 75.375 L 72 75.375 C 73.65625 75.375 75 74.03125 75 72.375 L 75 3.375 C 75 1.71875 73.65625 0.375 72 0.375 L 3 0.375 C 1.34375 0.375 0 1.71875 0 3.375 Z M 0 3.375 " clip-rule="nonzero"/></clipPath><clipPath id="ffd9dbfb30"><path d="M 0.75 51 L 73.5 51 L 73.5 71 L 0.75 71 Z M 0.75 51 " clip-rule="nonzero"/></clipPath><clipPath id="2ea91834ac"><path d="M 0.75 4.101562 L 0.75 70.898438 C 0.75 72.554688 2.09375 73.898438 3.75 73.898438 L 70.542969 73.898438 C 72.199219 73.898438 73.542969 72.554688 73.542969 70.898438 L 73.542969 4.101562 C 73.542969 2.445312 72.199219 1.101562 70.542969 1.101562 L 3.75 1.101562 C 2.09375 1.101562 0.75 2.445312 0.75 4.101562 Z M 0.75 4.101562 " clip-rule="nonzero"/></clipPath><clipPath id="e317a8f747"><path d="M 0.75 4 L 73.5 4 L 73.5 49 L 0.75 49 Z M 0.75 4 " clip-rule="nonzero"/></clipPath><clipPath id="6430c1e501"><path d="M 0.75 4.101562 L 0.75 70.898438 C 0.75 72.554688 2.09375 73.898438 3.75 73.898438 L 70.542969 73.898438 C 72.199219 73.898438 73.542969 72.554688 73.542969 70.898438 L 73.542969 4.101562 C 73.542969 2.445312 72.199219 1.101562 70.542969 1.101562 L 3.75 1.101562 C 2.09375 1.101562 0.75 2.445312 0.75 4.101562 Z M 0.75 4.101562 " clip-rule="nonzero"/></clipPath></defs><g clip-path="url(#43adc3a248)"><g clip-path="url(#f6bfb11ddf)"><path fill="#646464" d="M 75 61.3125 L 75 51.933594 L 0 51.933594 L 0 61.3125 L 23.4375 61.3125 L 23.4375 69.125 L 17.1875 69.125 L 17.1875 72.25 L 57.8125 72.25 L 57.8125 69.125 L 51.5625 69.125 L 51.5625 61.3125 Z M 75 61.3125 " fill-opacity="1" fill-rule="nonzero"/></g></g><g clip-path="url(#4be071d00b)"><g clip-path="url(#deae821f3f)"><path fill="#646464" d="M 0 3.5 L 0 48.808594 L 75 48.808594 L 75 3.5 Z M 35.9375 8.183594 L 43.75 8.183594 L 43.75 11.308594 L 35.9375 11.308594 Z M 34.375 15.996094 L 40.625 15.996094 L 40.625 19.121094 L 34.375 19.121094 Z M 29.6875 26.933594 L 29.6875 23.808594 L 48.4375 23.808594 L 48.4375 26.933594 Z M 45.3125 31.621094 L 45.3125 34.746094 L 42.1875 34.746094 L 42.1875 31.621094 Z M 29.6875 8.183594 L 32.8125 8.183594 L 32.8125 11.308594 L 29.6875 11.308594 Z M 23.4375 8.183594 L 26.5625 8.183594 L 26.5625 11.308594 L 23.4375 11.308594 Z M 7.8125 15.996094 L 31.25 15.996094 L 31.25 19.121094 L 7.8125 19.121094 Z M 14.386719 40.671875 L 12.175781 42.882812 L 5.601562 36.308594 L 12.175781 29.734375 L 14.386719 31.945312 L 10.023438 36.308594 Z M 17.855469 44.699219 L 14.957031 43.539062 L 21.207031 27.914062 L 24.109375 29.074219 Z M 26.886719 42.882812 L 24.675781 40.671875 L 29.039062 36.308594 L 24.675781 31.945312 L 26.886719 29.734375 L 33.460938 36.308594 Z M 35.9375 31.621094 L 39.0625 31.621094 L 39.0625 34.746094 L 35.9375 34.746094 Z M 67.1875 42.558594 L 37.5 42.558594 L 37.5 39.433594 L 67.1875 39.433594 Z M 67.1875 34.746094 L 48.4375 34.746094 L 48.4375 31.621094 L 67.1875 31.621094 Z M 67.1875 26.933594 L 51.5625 26.933594 L 51.5625 23.808594 L 67.1875 23.808594 Z M 67.1875 19.121094 L 43.75 19.121094 L 43.75 15.996094 L 67.1875 15.996094 Z M 67.1875 11.308594 L 46.875 11.308594 L 46.875 8.183594 L 67.1875 8.183594 Z M 67.1875 11.308594 " fill-opacity="1" fill-rule="nonzero"/></g></g><g clip-path="url(#ffd9dbfb30)"><g clip-path="url(#2ea91834ac)"><path fill="#cbcbcb" d="M 73.535156 60.242188 L 73.535156 51.136719 L 0.75 51.136719 L 0.75 60.242188 L 23.496094 60.242188 L 23.496094 67.824219 L 17.429688 67.824219 L 17.429688 70.855469 L 56.855469 70.855469 L 56.855469 67.824219 L 50.789062 67.824219 L 50.789062 60.242188 Z M 73.535156 60.242188 " fill-opacity="1" fill-rule="nonzero"/></g></g><g clip-path="url(#e317a8f747)"><g clip-path="url(#6430c1e501)"><path fill="#cbcbcb" d="M 0.75 4.136719 L 0.75 48.105469 L 73.535156 48.105469 L 73.535156 4.136719 Z M 35.625 8.679688 L 43.207031 8.679688 L 43.207031 11.710938 L 35.625 11.710938 Z M 34.109375 16.261719 L 40.175781 16.261719 L 40.175781 19.292969 L 34.109375 19.292969 Z M 29.5625 26.875 L 29.5625 23.84375 L 47.757812 23.84375 L 47.757812 26.875 Z M 44.722656 31.425781 L 44.722656 34.457031 L 41.691406 34.457031 L 41.691406 31.425781 Z M 29.5625 8.679688 L 32.59375 8.679688 L 32.59375 11.710938 L 29.5625 11.710938 Z M 23.496094 8.679688 L 26.527344 8.679688 L 26.527344 11.710938 L 23.496094 11.710938 Z M 8.332031 16.261719 L 31.078125 16.261719 L 31.078125 19.292969 L 8.332031 19.292969 Z M 14.710938 40.210938 L 12.566406 42.355469 L 6.1875 35.972656 L 12.566406 29.59375 L 14.710938 31.738281 L 10.476562 35.972656 Z M 18.078125 44.117188 L 15.261719 42.992188 L 21.328125 27.832031 L 24.144531 28.957031 Z M 26.84375 42.355469 L 24.699219 40.210938 L 28.933594 35.976562 L 24.699219 31.738281 L 26.84375 29.59375 L 33.222656 35.976562 Z M 35.625 31.425781 L 38.660156 31.425781 L 38.660156 34.457031 L 35.625 34.457031 Z M 65.953125 42.039062 L 37.144531 42.039062 L 37.144531 39.007812 L 65.953125 39.007812 Z M 65.953125 34.457031 L 47.757812 34.457031 L 47.757812 31.425781 L 65.953125 31.425781 Z M 65.953125 26.875 L 50.789062 26.875 L 50.789062 23.84375 L 65.953125 23.84375 Z M 65.953125 19.292969 L 43.207031 19.292969 L 43.207031 16.261719 L 65.953125 16.261719 Z M 65.953125 11.714844 L 46.242188 11.714844 L 46.242188 8.679688 L 65.953125 8.679688 Z M 65.953125 11.714844 " fill-opacity="1" fill-rule="nonzero"/></g></g></svg>