<?xml version="1.0" encoding="UTF-8" standalone="no"?>
<svg
   width="292.94843"
   zoomAndPan="magnify"
   viewBox="0 0 219.59413 49.05507"
   height="65.406761"
   preserveAspectRatio="xMidYMid"
   version="1.0"
   id="svg2"
   sodipodi:docname="header.svg"
   inkscape:version="1.3 (0e150ed, 2023-07-21)"
   xmlns:inkscape="http://www.inkscape.org/namespaces/inkscape"
   xmlns:sodipodi="http://sodipodi.sourceforge.net/DTD/sodipodi-0.dtd"
   xmlns="http://www.w3.org/2000/svg"
   xmlns:svg="http://www.w3.org/2000/svg">
  <sodipodi:namedview
     id="namedview2"
     pagecolor="#ffffff"
     bordercolor="#000000"
     borderopacity="0.25"
     inkscape:showpageshadow="2"
     inkscape:pageopacity="0.0"
     inkscape:pagecheckerboard="0"
     inkscape:deskcolor="#d1d1d1"
     inkscape:zoom="1.5733333"
     inkscape:cx="144.59746"
     inkscape:cy="40.677966"
     inkscape:window-width="1312"
     inkscape:window-height="449"
     inkscape:window-x="0"
     inkscape:window-y="0"
     inkscape:window-maximized="0"
     inkscape:current-layer="svg2" />
  <defs
     id="defs1">
    <clipPath
       id="12b413a302">
      <path
         d="M 0.4375,19 H 224.32422 V 82 H 0.4375 Z m 0,0"
         clip-rule="nonzero"
         id="path1" />
    </clipPath>
  </defs>
  <g
     clip-path="url(#12b413a302)"
     id="g2"
     transform="translate(-4.0246525,-25.968555)">
    <path
       stroke-linecap="butt"
       transform="matrix(4.35026,0,0,4.35026,0.437786,8.148241)"
       fill="none"
       stroke-linejoin="miter"
       d="m 9.589878,12.562153 c 0.060161,0.03681 0.164322,0.123915 0.312481,0.262197 0.106854,0.0862 0.090692,0.230769 -0.046693,0.433702 -0.841364,1.310087 -2.137084,1.964681 -3.887159,1.964681 -1.388207,0 -2.56989,-0.532475 -3.546843,-1.597425 C 1.448303,12.557663 0.960725,11.260147 0.960725,9.734556 0.960725,8.221536 1.448303,6.92851 2.421664,5.855478 3.398617,4.782446 4.5803,4.246379 5.968507,4.246379 c 1.750075,0 3.008081,0.63484 3.77402,1.906315 0.1302,0.212811 0.1302,0.362766 0,0.448968 C 9.668896,6.642967 9.592572,6.686067 9.511757,6.730066 9.430943,6.772269 9.364496,6.792922 9.312416,6.792922 9.226214,6.792922 9.167848,6.729168 9.136421,6.601662 9.051117,6.18502 8.725167,5.789929 8.160366,5.418184 7.51924,4.990767 6.809872,4.777058 6.031362,4.777058 c -1.088297,0 -1.976354,0.470518 -2.664172,1.410656 -0.687818,0.937444 -1.030829,2.109248 -1.030829,3.515414 0,1.46094 0.345704,2.650704 1.03891,3.570189 0.692308,0.916791 1.572284,1.374738 2.639928,1.374738 0.834182,0 1.564203,-0.223586 2.191859,-0.671655 0.375337,-0.268482 0.657288,-0.561209 0.847651,-0.879078 0.054774,-0.116732 0.103262,-0.235259 0.144567,-0.355582 0.075427,-0.158037 0.161628,-0.237953 0.257707,-0.237953 0.031428,0 0.075427,0.01975 0.132895,0.05837 z m 1.785992,-1.097277 c 0,-1.002993 0.323257,-1.857827 0.968872,-2.566297 0.645615,-0.711165 1.42143,-1.066747 2.328345,-1.066747 0.916791,0 1.697994,0.355582 2.343609,1.066747 0.645616,0.70847 0.968872,1.563304 0.968872,2.566297 0,1.002994 -0.323256,1.859623 -0.968872,2.56989 -0.645615,0.70847 -1.426818,1.063155 -2.343609,1.063155 -0.906915,0 -1.68273,-0.354685 -2.328345,-1.063155 -0.645615,-0.710267 -0.968872,-1.566896 -0.968872,-2.56989 z m 1.070338,0 c 0,0.885364 0.219096,1.640527 0.656391,2.26549 0.437294,0.622269 0.966178,0.933852 1.585753,0.933852 0.616881,0 1.144866,-0.311583 1.582161,-0.933852 0.437294,-0.624963 0.65639,-1.380126 0.65639,-2.26549 0,-0.896139 -0.219096,-1.656689 -0.65639,-2.281652 -0.437295,-0.624962 -0.96528,-0.937444 -1.582161,-0.937444 -0.619575,0 -1.148459,0.312482 -1.585753,0.937444 -0.437295,0.624963 -0.656391,1.385513 -0.656391,2.281652 z m 7.042503,3.167914 V 8.902171 c 0,-0.265789 0.07722,-0.475008 0.230769,-0.628555 0.156241,-0.15624 0.346603,-0.234361 0.570189,-0.234361 0.351092,0 0.639329,0.16522 0.862915,0.49566 0.544149,0.823406 1.4349,2.173002 2.672254,4.050584 0.0862,0.117629 0.149955,0.175995 0.19126,0.175995 0.05208,0 0.07812,-0.101466 0.07812,-0.3044 V 8.51965 c 0,-0.320562 0.0862,-0.480395 0.257708,-0.480395 0.172403,0 0.257707,0.159833 0.257707,0.480395 v 6.015265 c 0,0.299911 -0.09608,0.449866 -0.289135,0.449866 -0.09608,0 -0.182281,-0.05388 -0.257707,-0.160731 L 20.496194,9.257753 C 20.379462,9.064697 20.272608,8.968618 20.176529,8.968618 c -0.106854,0 -0.16073,0.117629 -0.16073,0.35199 v 5.312182 c 0,0.234361 -0.09608,0.351991 -0.289135,0.351991 -0.158037,0 -0.237953,-0.11763 -0.237953,-0.351991 z m 8.494463,0.109548 c 0,0.182281 0.09069,0.272973 0.272972,0.272973 h 0.413948 c 0.182281,0 0.27387,-0.09069 0.27387,-0.272973 V 8.792622 c 0,-0.127506 0.05837,-0.202933 0.175995,-0.226279 0.03143,-0.010775 0.14816,-0.015265 0.351093,-0.015265 h 1.023646 c 0.234361,0 0.35199,-0.063753 0.35199,-0.19126 V 8.230515 c 0,-0.127506 -0.149057,-0.19126 -0.445376,-0.19126 h -3.968871 c -0.309788,0 -0.465131,0.063754 -0.465131,0.19126 v 0.129303 c 0,0.127507 0.12212,0.19126 0.367256,0.19126 h 1.409757 c 0.158935,0 0.238851,0.080814 0.238851,0.241544 z m 7.665669,-1.628853 H 33.4067 c -0.180485,0 -0.297216,0.08979 -0.35199,0.26938 -0.127507,0.416642 -0.265789,0.853936 -0.413948,1.312781 -0.06555,0.202933 -0.167016,0.3044 -0.3044,0.3044 -0.224484,0 -0.298115,-0.11763 -0.222688,-0.351991 l 1.886561,-6.096977 c 0.127507,-0.404071 0.378928,-0.606106 0.753367,-0.606106 0.341215,0 0.565699,0.138282 0.672553,0.414846 0.520803,1.450165 1.282251,3.53068 2.285244,6.241545 0.03322,0.09428 0.03322,0.178689 0,0.254115 -0.03143,0.09608 -0.105956,0.144568 -0.222687,0.144568 h -0.511823 c -0.213709,0 -0.358276,-0.101467 -0.433703,-0.3044 L 36.078056,13.3676 c -0.05208,-0.169709 -0.194852,-0.254115 -0.429213,-0.254115 z M 33.51984,12.63309 h 2.097576 c 0.138281,0 0.179586,-0.06914 0.124812,-0.207423 -0.245136,-0.715654 -0.590841,-1.677343 -1.03891,-2.882371 -0.06286,-0.190362 -0.141874,-0.285543 -0.237953,-0.285543 -0.09698,0 -0.172403,0.084406 -0.227177,0.254115 -0.179587,0.575576 -0.462437,1.498653 -0.847651,2.769231 -0.07273,0.234361 -0.02963,0.351991 0.129303,0.351991 z m 11.262796,0.703083 c 0.182281,0.0853 0.225382,0.202933 0.128405,0.351092 -0.309788,0.448069 -0.549537,0.74798 -0.718348,0.898833 -0.427417,0.341215 -0.992218,0.511823 -1.695301,0.511823 -0.906016,0 -1.68273,-0.354685 -2.328345,-1.063155 -0.645615,-0.710267 -0.968872,-1.566896 -0.968872,-2.56989 0,-1.002993 0.323257,-1.857827 0.968872,-2.566297 0.645615,-0.711165 1.422329,-1.066747 2.328345,-1.066747 0.544148,0 1.035319,0.149955 1.472613,0.449866 0.327746,0.21281 0.562107,0.452559 0.703083,0.718347 0.08351,0.158935 0.04041,0.281054 -0.128405,0.367256 -0.0422,0.020652 -0.09069,0.048488 -0.144567,0.081712 -0.0422,0 -0.09518,-0.047591 -0.160731,-0.144568 C 43.739236,8.598669 43.163659,8.24578 42.512657,8.24578 c -0.619575,0 -1.148459,0.312482 -1.585753,0.937444 -0.437294,0.624963 -0.65639,1.385513 -0.65639,2.281652 0,0.885364 0.219096,1.640527 0.65639,2.26549 0.437294,0.622269 0.966178,0.933852 1.585753,0.933852 0.534271,0 0.971565,-0.144567 1.31278,-0.433702 0.179587,-0.14816 0.381623,-0.413948 0.605208,-0.797367 0.0862,-0.140077 0.203832,-0.172403 0.351991,-0.09698 z m 3.520802,1.406165 c 0,0.182281 0.09069,0.272973 0.272972,0.272973 h 0.413948 c 0.182281,0 0.27387,-0.09069 0.27387,-0.272973 V 8.792622 c 0,-0.127506 0.05837,-0.202933 0.175996,-0.226279 0.03053,-0.010775 0.148159,-0.015265 0.351092,-0.015265 h 1.023646 c 0.234361,0 0.351092,-0.063753 0.351092,-0.19126 V 8.230515 c 0,-0.127506 -0.148159,-0.19126 -0.445375,-0.19126 h -3.967974 c -0.310686,0 -0.46513,0.063754 -0.46513,0.19126 v 0.129303 c 0,0.127507 0.122119,0.19126 0.367255,0.19126 h 1.409758 c 0.158934,0 0.23885,0.080814 0.23885,0.241544 z m 0,0"
       stroke="#000000"
       stroke-width="0.3"
       stroke-opacity="1"
       stroke-miterlimit="4"
       id="path2" />
  </g>
</svg>
