<?xml version="1.0" encoding="UTF-8" standalone="no"?>
<svg
   width="42.40625"
   zoomAndPan="magnify"
   viewBox="0 0 31.804688 36.60742"
   height="48.809895"
   preserveAspectRatio="xMidYMid"
   version="1.0"
   id="svg16"
   sodipodi:docname="Untitled design (3).svg"
   inkscape:version="1.3 (0e150ed, 2023-07-21)"
   xmlns:inkscape="http://www.inkscape.org/namespaces/inkscape"
   xmlns:sodipodi="http://sodipodi.sourceforge.net/DTD/sodipodi-0.dtd"
   xmlns="http://www.w3.org/2000/svg"
   xmlns:svg="http://www.w3.org/2000/svg">
  <sodipodi:namedview
     id="namedview16"
     pagecolor="#ffffff"
     bordercolor="#000000"
     borderopacity="0.25"
     inkscape:showpageshadow="2"
     inkscape:pageopacity="0.0"
     inkscape:pagecheckerboard="0"
     inkscape:deskcolor="#d1d1d1"
     inkscape:zoom="4.72"
     inkscape:cx="21.504237"
     inkscape:cy="24.788136"
     inkscape:window-width="1312"
     inkscape:window-height="449"
     inkscape:window-x="0"
     inkscape:window-y="0"
     inkscape:window-maximized="0"
     inkscape:current-layer="svg16" />
  <defs
     id="defs8">
    <clipPath
       id="fc6390ef02">
      <path
         d="m 4.371094,2.238281 h 28.5 v 32.902344 h -28.5 z m 0,0"
         clip-rule="nonzero"
         id="path1" />
    </clipPath>
    <clipPath
       id="9a9ae78468">
      <path
         d="m 19.261719,2.480469 12.96875,7.546875 c 0.394531,0.230468 0.640625,0.652344 0.640625,1.113281 v 15.097656 c 0,0.457031 -0.246094,0.882813 -0.640625,1.113281 l -12.96875,7.546876 c -0.398438,0.230468 -0.886719,0.230468 -1.28125,0 L 5.011719,27.351562 C 4.617188,27.121094 4.371094,26.695312 4.371094,26.238281 V 11.140625 c 0,-0.460937 0.246094,-0.882813 0.640625,-1.113281 L 17.980469,2.480469 C 18.375,2.25 18.863281,2.25 19.261719,2.480469 Z m 0,0"
         clip-rule="nonzero"
         id="path2" />
    </clipPath>
    <clipPath
       id="3798ad9d6f">
      <path
         d="M 2.601562,0 H 34.40625 V 37 H 2.601562 Z m 0,0"
         clip-rule="nonzero"
         id="path3" />
    </clipPath>
    <clipPath
       id="6a868b6f1b">
      <path
         d="m 19.144531,0.371094 14.621094,8.507812 c 0.394531,0.230469 0.640625,0.65625 0.640625,1.113282 v 17.023437 c 0,0.457031 -0.246094,0.882813 -0.640625,1.113281 l -14.621094,8.503906 c -0.398437,0.230469 -0.886719,0.230469 -1.28125,0 L 3.242188,28.128906 C 2.84375,27.898438 2.601562,27.472656 2.601562,27.015625 V 9.992188 c 0,-0.457032 0.242188,-0.882813 0.640626,-1.113282 L 17.863281,0.371094 c 0.394531,-0.230469 0.882813,-0.230469 1.28125,0 z m 0,0"
         clip-rule="nonzero"
         id="path4" />
    </clipPath>
    <clipPath
       id="67b56333ac">
      <path
         d="M 4.097656,1.785156 H 32.867188 V 35.09375 H 4.097656 Z m 0,0"
         clip-rule="nonzero"
         id="path5" />
    </clipPath>
    <clipPath
       id="673e7cea78">
      <path
         d="m 19.121094,2.160156 13.105468,7.625 c 0.398438,0.230469 0.640626,0.652344 0.640626,1.109375 V 26.15625 c 0,0.457031 -0.242188,0.882812 -0.640626,1.113281 l -13.105468,7.625 c -0.394532,0.230469 -0.882813,0.230469 -1.28125,0 l -13.105469,-7.625 C 4.339844,27.039062 4.097656,26.613281 4.097656,26.15625 V 10.894531 c 0,-0.457031 0.242188,-0.878906 0.636719,-1.109375 l 13.105469,-7.625 c 0.398437,-0.230468 0.886718,-0.230468 1.28125,0 z m 0,0"
         clip-rule="nonzero"
         id="path6" />
    </clipPath>
    <clipPath
       id="6e977c024b">
      <path
         d="M 2.601562,0 H 34.40625 V 37 H 2.601562 Z m 0,0"
         clip-rule="nonzero"
         id="path7" />
    </clipPath>
    <clipPath
       id="c894bf7d96">
      <path
         d="m 19.144531,0.371094 14.621094,8.507812 c 0.394531,0.230469 0.640625,0.65625 0.640625,1.113282 v 17.023437 c 0,0.457031 -0.246094,0.882813 -0.640625,1.113281 l -14.621094,8.503906 c -0.398437,0.230469 -0.886719,0.230469 -1.28125,0 L 3.242188,28.128906 C 2.84375,27.898438 2.601562,27.472656 2.601562,27.015625 V 9.992188 c 0,-0.457032 0.242188,-0.882813 0.640626,-1.113282 L 17.863281,0.371094 c 0.394531,-0.230469 0.882813,-0.230469 1.28125,0 z m 0,0"
         clip-rule="nonzero"
         id="path8" />
    </clipPath>
  </defs>
  <g
     clip-path="url(#fc6390ef02)"
     id="g10"
     transform="translate(-2.601562,-0.19824225)">
    <g
       clip-path="url(#9a9ae78468)"
       id="g9">
      <path
         fill="#cbcbcb"
         d="m 4.371094,2.109375 h 28.5 v 33.160156 h -28.5 z m 0,0"
         fill-opacity="1"
         fill-rule="nonzero"
         id="path9" />
    </g>
  </g>
  <g
     clip-path="url(#3798ad9d6f)"
     id="g12"
     transform="translate(-2.601562,-0.19824225)">
    <g
       clip-path="url(#6a868b6f1b)"
       id="g11">
      <path
         fill="#cbcbcb"
         d="M 2.601562,0 H 34.40625 V 37.007812 H 2.601562 Z m 0,0"
         fill-opacity="1"
         fill-rule="nonzero"
         id="path10" />
      <path
         stroke-linecap="butt"
         transform="matrix(0.740132,0,0,0.740132,2.602025,0)"
         fill="none"
         stroke-linejoin="miter"
         d="M 22.350765,0.501389 42.105489,11.99639 c 0.533055,0.311389 0.865555,0.886666 0.865555,1.504166 v 23.000558 c 0,0.6175 -0.3325,1.192777 -0.865555,1.504166 L 22.350765,49.495003 c -0.538333,0.311389 -1.198056,0.311389 -1.731111,0 L 0.86493,38.00528 C 0.326597,37.693891 -6.25427e-4,37.118614 -6.25427e-4,36.501114 V 13.500556 c 0,-0.6175 0.327222427,-1.192777 0.865555427,-1.504166 L 20.619654,0.501389 c 0.533055,-0.311389 1.192778,-0.311389 1.731111,0 z m 0,0"
         stroke="#cbcbcb"
         stroke-width="2"
         stroke-opacity="1"
         stroke-miterlimit="4"
         id="path11" />
    </g>
  </g>
  <g
     clip-path="url(#67b56333ac)"
     id="g14"
     transform="translate(-2.601562,-0.19824225)">
    <g
       clip-path="url(#673e7cea78)"
       id="g13">
      <path
         stroke-linecap="butt"
         transform="matrix(0.740132,0,0,0.740132,4.09572,1.786197)"
         fill="none"
         stroke-linejoin="miter"
         d="m 20.30095,0.50526 17.706946,10.302223 c 0.538333,0.311389 0.865555,0.881389 0.865555,1.498889 v 20.620279 c 0,0.6175 -0.327222,1.192778 -0.865555,1.504167 L 20.30095,44.733041 c -0.533055,0.311389 -1.192778,0.311389 -1.731111,0 L 0.862893,34.430818 C 0.329838,34.119429 0.00261547,33.544151 0.00261547,32.926651 V 12.306372 c 0,-0.6175 0.32722253,-1.1875 0.86027753,-1.498889 L 18.569839,0.50526 c 0.538333,-0.311389 1.198056,-0.311389 1.731111,0 z m 0,0"
         stroke="#cfaf5c"
         stroke-width="2"
         stroke-opacity="1"
         stroke-miterlimit="4"
         id="path12" />
    </g>
  </g>
  <g
     clip-path="url(#6e977c024b)"
     id="g16"
     transform="translate(-2.601562,-0.19824225)">
    <g
       clip-path="url(#c894bf7d96)"
       id="g15">
      <path
         stroke-linecap="butt"
         transform="matrix(0.740132,0,0,0.740132,2.602025,0)"
         fill="none"
         stroke-linejoin="miter"
         d="M 22.350765,0.501389 42.105489,11.99639 c 0.533055,0.311389 0.865555,0.886666 0.865555,1.504166 v 23.000558 c 0,0.6175 -0.3325,1.192777 -0.865555,1.504166 L 22.350765,49.495003 c -0.538333,0.311389 -1.198056,0.311389 -1.731111,0 L 0.86493,38.00528 C 0.326597,37.693891 -6.25427e-4,37.118614 -6.25427e-4,36.501114 V 13.500556 c 0,-0.6175 0.327222427,-1.192777 0.865555427,-1.504166 L 20.619654,0.501389 c 0.533055,-0.311389 1.192778,-0.311389 1.731111,0 z m 0,0"
         stroke="#8f8f8f"
         stroke-width="2"
         stroke-opacity="1"
         stroke-miterlimit="4"
         id="path14" />
    </g>
  </g>
</svg>
