<svg xmlns="http://www.w3.org/2000/svg" xmlns:xlink="http://www.w3.org/1999/xlink" width="100" zoomAndPan="magnify" viewBox="0 0 75 74.999997" height="100" preserveAspectRatio="xMidYMid meet" version="1.0"><defs><filter x="0%" y="0%" width="100%" height="100%" id="3347a8bab8"><feColorMatrix values="0 0 0 0 1 0 0 0 0 1 0 0 0 0 1 0 0 0 1 0" color-interpolation-filters="sRGB"/></filter><mask id="779db5e8a5"><g filter="url(#3347a8bab8)"><rect x="-7.5" width="90" fill="#000000" y="-7.5" height="89.999996" fill-opacity="0.5"/></g></mask><clipPath id="653a92af35"><path d="M 0 1.167969 L 74.25 1.167969 L 74.25 62.664062 L 0 62.664062 Z M 0 1.167969 " clip-rule="nonzero"/></clipPath><clipPath id="dcbb71e26b"><path d="M 74.25 31.914062 L 56.382812 62.664062 L 17.867188 62.664062 L 0 31.914062 L 17.867188 1.167969 L 56.382812 1.167969 Z M 74.25 31.914062 " clip-rule="nonzero"/></clipPath><clipPath id="22b7c2a37f"><rect x="0" width="75" y="0" height="66"/></clipPath><mask id="91ef6c405c"><g filter="url(#3347a8bab8)"><rect x="-7.5" width="90" fill="#000000" y="-7.5" height="89.999996" fill-opacity="0.5"/></g></mask><clipPath id="a3ef06e31f"><path d="M 0 0.535156 L 74.25 0.535156 L 74.25 63.53125 L 0 63.53125 Z M 0 0.535156 " clip-rule="nonzero"/></clipPath><clipPath id="bcf06fb4e9"><path d="M 74.25 32.03125 L 56.429688 63.527344 L 17.820312 63.527344 L 0 32.03125 L 17.820312 0.535156 L 56.429688 0.535156 Z M 74.25 32.03125 " clip-rule="nonzero"/></clipPath><clipPath id="1fba509f83"><rect x="0" width="75" y="0" height="67"/></clipPath><clipPath id="0373485740"><path d="M 0 0 L 73.5 0 L 73.5 63 L 0 63 Z M 0 0 " clip-rule="nonzero"/></clipPath><clipPath id="13be0862ea"><path d="M 73.5 31.5 L 55.125 63 L 18.375 63 L 0 31.5 L 18.375 0 L 55.125 0 Z M 73.5 31.5 " clip-rule="nonzero"/></clipPath></defs><g mask="url(#779db5e8a5)"><g transform="matrix(1, 0, 0, 1, 0, -0.000000000000001893)"><g clip-path="url(#22b7c2a37f)"><g clip-path="url(#653a92af35)"><g clip-path="url(#dcbb71e26b)"><path stroke-linecap="butt" transform="matrix(0.749763, 0, 0, 0.750429, 0.0000015, 1.168325)" fill="none" stroke-linejoin="miter" d="M 99.031256 40.970889 L 75.200817 81.947458 L 23.830436 81.947458 L -0.00000200063 40.970889 L 23.830436 -0.00047425 L 75.200817 -0.00047425 Z M 99.031256 40.970889 " stroke="#d9d9d9" stroke-width="2" stroke-opacity="1" stroke-miterlimit="4"/></g></g></g></g></g><g mask="url(#91ef6c405c)"><g transform="matrix(1, 0, 0, 1, 0, -0.000000000000001893)"><g clip-path="url(#1fba509f83)"><g clip-path="url(#a3ef06e31f)"><g clip-path="url(#bcf06fb4e9)"><path stroke-linecap="butt" transform="matrix(0.749763, 0, 0, 0.753645, 0.0000015, 0.534415)" fill="none" stroke-linejoin="miter" d="M 99.031256 41.792678 L 75.263337 83.584372 L 23.767917 83.584372 L -0.00000200063 41.792678 L 23.767917 0.00098359 L 75.263337 0.00098359 Z M 99.031256 41.792678 " stroke="#a6a6a6" stroke-width="2" stroke-opacity="1" stroke-miterlimit="4"/></g></g></g></g></g><g clip-path="url(#0373485740)"><g clip-path="url(#13be0862ea)"><path stroke-linecap="butt" transform="matrix(0.749283, 0, 0, 0.747359, 0.00106582, -0.000001)" fill="none" stroke-linejoin="miter" d="M 98.092338 42.148443 L 73.568898 84.296884 L 24.522018 84.296884 L -0.00142246 42.148443 L 24.522018 0.00000133805 L 73.568898 0.00000133805 Z M 98.092338 42.148443 " stroke="#000000" stroke-width="2" stroke-opacity="1" stroke-miterlimit="4"/></g></g></svg>