<?xml version="1.0" encoding="UTF-8" standalone="no"?>
<svg
   id="Layer_1"
   style="enable-background:new 0 0 128 128;"
   version="1.1"
   viewBox="0 0 128 128"
   xml:space="preserve"
   sodipodi:docname="list.svg"
   inkscape:version="1.3 (0e150ed, 2023-07-21)"
   xmlns:inkscape="http://www.inkscape.org/namespaces/inkscape"
   xmlns:sodipodi="http://sodipodi.sourceforge.net/DTD/sodipodi-0.dtd"
   xmlns="http://www.w3.org/2000/svg"
   xmlns:svg="http://www.w3.org/2000/svg"><defs
     id="defs3" /><sodipodi:namedview
     id="namedview3"
     pagecolor="#ffffff"
     bordercolor="#000000"
     borderopacity="0.25"
     inkscape:showpageshadow="2"
     inkscape:pageopacity="0.0"
     inkscape:pagecheckerboard="0"
     inkscape:deskcolor="#d1d1d1"
     inkscape:zoom="1.84375"
     inkscape:cx="60.474576"
     inkscape:cy="59.661017"
     inkscape:window-width="1312"
     inkscape:window-height="449"
     inkscape:window-x="0"
     inkscape:window-y="0"
     inkscape:window-maximized="0"
     inkscape:current-layer="g3" /><style
     type="text/css"
     id="style1">&#10;	.st0{fill:#4D4D4D;}&#10;	.st1{fill:#FFFFFF;}&#10;</style><circle
     class="st0"
     cx="64"
     cy="64"
     r="64"
     id="circle1" /><g
     id="g3"><path
       class="st1"
       d="M 103,59.915253 H 25 c -0.6,0 -1,0.245037 -1,0.612591 v 7.351089 c 0,0.367555 0.4,0.612592 1,0.612592 h 78 c 0.6,0 1,-0.245037 1,-0.612592 v -7.351089 c 0,-0.367554 -0.4,-0.612591 -1,-0.612591 z"
       id="path1"
       style="stroke-width:1;paint-order:stroke fill markers" /><path
       class="st1"
       d="M 103.16949,35.847458 H 25.169492 c -0.6,0 -1,0.245037 -1,0.612591 v 7.351089 c 0,0.367555 0.4,0.612592 1,0.612592 h 77.999998 c 0.6,0 1,-0.245037 1,-0.612592 v -7.351089 c 0,-0.367554 -0.4,-0.612591 -1,-0.612591 z"
       id="path1-8"
       style="fill:#ffffff;stroke-width:1;paint-order:stroke fill markers" /><path
       class="st1"
       d="M 102.30508,85.644068 H 24.305085 c -0.6,0 -1,0.245037 -1,0.612591 v 7.351089 c 0,0.367555 0.4,0.612592 1,0.612592 h 77.999995 c 0.6,0 1,-0.245037 1,-0.612592 v -7.351089 c 0,-0.367554 -0.4,-0.612591 -1,-0.612591 z"
       id="path1-8-1"
       style="fill:#ffffff;stroke-width:1;paint-order:stroke fill markers" /></g>
       </svg>
