<svg xmlns="http://www.w3.org/2000/svg" xmlns:xlink="http://www.w3.org/1999/xlink" width="100" zoomAndPan="magnify" viewBox="0 0 75 74.999997" height="100" preserveAspectRatio="xMidYMid meet" version="1.0"><defs><g/><clipPath id="b1e87c7378"><path d="M 7.570312 4 L 67.21875 4 L 67.21875 71 L 7.570312 71 Z M 7.570312 4 " clip-rule="nonzero"/></clipPath><clipPath id="7e912176e2"><path d="M 41.285156 5.054688 L 63.328125 17.882812 C 65.738281 19.285156 67.21875 21.859375 67.21875 24.644531 L 67.21875 50.351562 C 67.21875 53.136719 65.738281 55.710938 63.328125 57.113281 L 41.285156 69.941406 C 38.878906 71.339844 35.910156 71.339844 33.503906 69.941406 L 11.460938 57.113281 C 9.050781 55.710938 7.570312 53.136719 7.570312 50.351562 L 7.570312 24.644531 C 7.570312 21.859375 9.050781 19.285156 11.460938 17.882812 L 33.503906 5.054688 C 35.910156 3.65625 38.878906 3.65625 41.285156 5.054688 Z M 41.285156 5.054688 " clip-rule="nonzero"/></clipPath><clipPath id="8493c31902"><path d="M 13.613281 10.578125 L 61.378906 10.578125 L 61.378906 64.421875 L 13.613281 64.421875 Z M 13.613281 10.578125 " clip-rule="nonzero"/></clipPath><clipPath id="bb0f7b7084"><path d="M 41.382812 11.972656 L 57.488281 21.339844 C 59.894531 22.742188 61.378906 25.316406 61.378906 28.101562 L 61.378906 46.894531 C 61.378906 49.679688 59.894531 52.257812 57.488281 53.65625 L 41.382812 63.027344 C 38.980469 64.425781 36.007812 64.425781 33.605469 63.027344 L 17.5 53.65625 C 15.09375 52.257812 13.613281 49.679688 13.613281 46.894531 L 13.613281 28.101562 C 13.613281 25.316406 15.09375 22.742188 17.5 21.339844 L 33.605469 11.972656 C 36.007812 10.570312 38.980469 10.570312 41.382812 11.972656 Z M 41.382812 11.972656 " clip-rule="nonzero"/></clipPath></defs><rect x="-7.5" width="90" fill="#ffffff" y="-7.5" height="89.999996" fill-opacity="1"/><rect x="-7.5" width="90" fill="#ffffff" y="-7.5" height="89.999996" fill-opacity="1"/><g clip-path="url(#b1e87c7378)"><g clip-path="url(#7e912176e2)"><path stroke-linecap="butt" transform="matrix(0.75, 0, 0, 0.75, 7.569997, 2.79362)" fill="none" stroke-linejoin="miter" d="M 44.95355 3.014757 L 74.344177 20.118925 C 77.557719 21.988717 79.531678 25.421009 79.531678 29.134551 L 79.531678 63.410595 C 79.531678 67.124137 77.557719 70.556429 74.344177 72.426221 L 44.95355 89.530389 C 41.745216 91.394972 37.786883 91.394972 34.578549 89.530389 L 5.187922 72.426221 C 1.97438 70.556429 0.000421144 67.124137 0.000421144 63.410595 L 0.000421144 29.134551 C 0.000421144 25.421009 1.97438 21.988717 5.187922 20.118925 L 34.578549 3.014757 C 37.786883 1.150173 41.745216 1.150173 44.95355 3.014757 Z M 44.95355 3.014757 " stroke="#c9c9c9" stroke-width="10" stroke-opacity="1" stroke-miterlimit="4"/></g></g><g clip-path="url(#8493c31902)"><g clip-path="url(#bb0f7b7084)"><path stroke-linecap="butt" transform="matrix(0.75, 0, 0, 0.75, 13.611435, 9.708359)" fill="none" stroke-linejoin="miter" d="M 37.028507 3.019063 L 58.502467 15.508647 C 61.7108 17.378439 63.689967 20.810731 63.689967 24.524273 L 63.689967 49.581567 C 63.689967 53.295109 61.7108 56.732609 58.502467 58.597193 L 37.028507 71.091985 C 33.825381 72.956569 29.861839 72.956569 26.658714 71.091985 L 5.184754 58.597193 C 1.97642 56.732609 0.00246195 53.295109 0.00246195 49.581567 L 0.00246195 24.524273 C 0.00246195 20.810731 1.97642 17.378439 5.184754 15.508647 L 26.658714 3.019063 C 29.861839 1.149271 33.825381 1.149271 37.028507 3.019063 Z M 37.028507 3.019063 " stroke="#b59e5f" stroke-width="6" stroke-opacity="1" stroke-miterlimit="4"/></g></g><g fill="#000000" fill-opacity="1"><g transform="translate(24.124449, 44.624995)"><g><path d="M 5.671875 -1.140625 C 6.359375 -1.140625 7.117188 -1.410156 7.953125 -1.953125 C 8.785156 -2.492188 9.597656 -3.128906 10.390625 -3.859375 C 11.179688 -4.597656 11.90625 -5.351562 12.5625 -6.125 C 13.21875 -6.894531 13.710938 -7.507812 14.046875 -7.96875 C 14.242188 -8.257812 14.429688 -8.429688 14.609375 -8.484375 C 14.796875 -8.546875 14.929688 -8.519531 15.015625 -8.40625 C 15.109375 -8.300781 15.140625 -8.128906 15.109375 -7.890625 C 15.085938 -7.660156 14.988281 -7.398438 14.8125 -7.109375 C 14.65625 -6.835938 14.394531 -6.453125 14.03125 -5.953125 C 13.664062 -5.453125 13.234375 -4.90625 12.734375 -4.3125 C 12.234375 -3.726562 11.664062 -3.128906 11.03125 -2.515625 C 10.394531 -1.910156 9.734375 -1.351562 9.046875 -0.84375 C 8.359375 -0.34375 7.644531 0.0664062 6.90625 0.390625 C 6.175781 0.710938 5.453125 0.875 4.734375 0.875 C 3.753906 0.875 2.9375 0.6875 2.28125 0.3125 C 1.625 -0.0507812 1.101562 -0.519531 0.71875 -1.09375 C 0.332031 -1.675781 0.0625 -2.316406 -0.09375 -3.015625 C -0.25 -3.722656 -0.328125 -4.421875 -0.328125 -5.109375 C -0.328125 -5.796875 -0.175781 -6.648438 0.125 -7.671875 C 0.4375 -8.691406 0.898438 -9.675781 1.515625 -10.625 C 2.128906 -11.570312 2.898438 -12.382812 3.828125 -13.0625 C 4.765625 -13.738281 5.867188 -14.078125 7.140625 -14.078125 C 7.847656 -14.078125 8.453125 -13.832031 8.953125 -13.34375 C 9.460938 -12.851562 9.703125 -12.1875 9.671875 -11.34375 C 9.671875 -10.945312 9.601562 -10.550781 9.46875 -10.15625 C 9.34375 -9.769531 9.164062 -9.425781 8.9375 -9.125 C 8.71875 -8.820312 8.457031 -8.582031 8.15625 -8.40625 C 7.851562 -8.226562 7.523438 -8.140625 7.171875 -8.140625 C 6.878906 -8.140625 6.660156 -8.242188 6.515625 -8.453125 C 6.378906 -8.671875 6.289062 -8.914062 6.25 -9.1875 C 6.21875 -9.46875 6.21875 -9.738281 6.25 -10 C 6.289062 -10.269531 6.332031 -10.453125 6.375 -10.546875 C 6.488281 -10.703125 6.609375 -10.8125 6.734375 -10.875 C 6.867188 -10.945312 7.023438 -11.023438 7.203125 -11.109375 C 7.335938 -11.179688 7.441406 -11.28125 7.515625 -11.40625 C 7.597656 -11.539062 7.640625 -11.6875 7.640625 -11.84375 C 7.640625 -12 7.59375 -12.128906 7.5 -12.234375 C 7.414062 -12.347656 7.273438 -12.40625 7.078125 -12.40625 C 6.878906 -12.40625 6.515625 -12.242188 5.984375 -11.921875 C 5.460938 -11.609375 4.929688 -11.132812 4.390625 -10.5 C 3.847656 -9.863281 3.363281 -9.066406 2.9375 -8.109375 C 2.507812 -7.148438 2.285156 -6.035156 2.265625 -4.765625 C 2.242188 -4.035156 2.34375 -3.4375 2.5625 -2.96875 C 2.789062 -2.5 3.070312 -2.128906 3.40625 -1.859375 C 3.738281 -1.597656 4.101562 -1.410156 4.5 -1.296875 C 4.90625 -1.191406 5.296875 -1.140625 5.671875 -1.140625 Z M 5.671875 -1.140625 "/></g></g></g><g fill="#000000" fill-opacity="1"><g transform="translate(36.183042, 46.430923)"><g><path d="M 10.625 -13.453125 C 10.625 -13.816406 10.804688 -14 11.171875 -14 L 12.203125 -14 C 12.585938 -14 12.78125 -13.816406 12.78125 -13.453125 L 12.78125 -0.546875 C 12.78125 -0.179688 12.585938 0 12.203125 0 L 11.171875 0 C 10.804688 0 10.625 -0.179688 10.625 -0.546875 L 10.625 -6.140625 C 10.625 -6.503906 10.421875 -6.6875 10.015625 -6.6875 L 4.609375 -6.6875 C 4.003906 -6.6875 3.703125 -6.410156 3.703125 -5.859375 L 3.734375 -0.546875 C 3.734375 -0.179688 3.550781 0 3.1875 0 L 2.15625 0 C 1.789062 0 1.609375 -0.179688 1.609375 -0.546875 L 1.609375 -22.34375 C 1.609375 -22.726562 1.789062 -22.921875 2.15625 -22.921875 L 3.1875 -22.921875 C 3.550781 -22.921875 3.734375 -22.726562 3.734375 -22.34375 L 3.703125 -8.46875 C 3.703125 -7.988281 3.90625 -7.75 4.3125 -7.75 L 10.078125 -7.75 C 10.359375 -7.75 10.519531 -7.769531 10.5625 -7.8125 C 10.601562 -7.863281 10.625 -8.003906 10.625 -8.234375 Z M 10.625 -13.453125 "/></g></g></g></svg>