<svg xmlns="http://www.w3.org/2000/svg" xmlns:xlink="http://www.w3.org/1999/xlink" width="100" zoomAndPan="magnify" viewBox="0 0 75 74.999997" height="100" preserveAspectRatio="xMidYMid meet" version="1.0"><defs><g/><clipPath id="4c282943a4"><path d="M 7.570312 4 L 67.21875 4 L 67.21875 71 L 7.570312 71 Z M 7.570312 4 " clip-rule="nonzero"/></clipPath><clipPath id="29e61fb1e9"><path d="M 41.285156 5.054688 L 63.328125 17.882812 C 65.738281 19.285156 67.21875 21.859375 67.21875 24.644531 L 67.21875 50.351562 C 67.21875 53.136719 65.738281 55.710938 63.328125 57.113281 L 41.285156 69.941406 C 38.878906 71.339844 35.910156 71.339844 33.503906 69.941406 L 11.460938 57.113281 C 9.050781 55.710938 7.570312 53.136719 7.570312 50.351562 L 7.570312 24.644531 C 7.570312 21.859375 9.050781 19.285156 11.460938 17.882812 L 33.503906 5.054688 C 35.910156 3.65625 38.878906 3.65625 41.285156 5.054688 Z M 41.285156 5.054688 " clip-rule="nonzero"/></clipPath><clipPath id="b08d30b6fe"><path d="M 13.613281 10 L 61.378906 10 L 61.378906 65 L 13.613281 65 Z M 13.613281 10 " clip-rule="nonzero"/></clipPath><clipPath id="a886b93d52"><path d="M 39.4375 10.839844 L 59.433594 22.472656 C 60.636719 23.171875 61.378906 24.460938 61.378906 25.851562 L 61.378906 49.144531 C 61.378906 50.539062 60.636719 51.824219 59.433594 52.527344 L 39.4375 64.160156 C 38.238281 64.859375 36.75 64.859375 35.550781 64.160156 L 15.554688 52.527344 C 14.351562 51.824219 13.613281 50.539062 13.613281 49.144531 L 13.613281 25.851562 C 13.613281 24.460938 14.351562 23.171875 15.554688 22.472656 L 35.550781 10.839844 C 36.75 10.140625 38.238281 10.140625 39.4375 10.839844 Z M 39.4375 10.839844 " clip-rule="nonzero"/></clipPath></defs><g clip-path="url(#4c282943a4)"><g clip-path="url(#29e61fb1e9)"><path stroke-linecap="butt" transform="matrix(0.75, 0, 0, 0.75, 7.569997, 2.79362)" fill="none" stroke-linejoin="miter" d="M 44.95355 3.014757 L 74.344177 20.118925 C 77.557719 21.988717 79.531678 25.421009 79.531678 29.134551 L 79.531678 63.410595 C 79.531678 67.124137 77.557719 70.556429 74.344177 72.426221 L 44.95355 89.530389 C 41.745216 91.394972 37.786883 91.394972 34.578549 89.530389 L 5.187922 72.426221 C 1.97438 70.556429 0.000421144 67.124137 0.000421144 63.410595 L 0.000421144 29.134551 C 0.000421144 25.421009 1.97438 21.988717 5.187922 20.118925 L 34.578549 3.014757 C 37.786883 1.150173 41.745216 1.150173 44.95355 3.014757 Z M 44.95355 3.014757 " stroke="#c9c9c9" stroke-width="10" stroke-opacity="1" stroke-miterlimit="4"/></g></g><g clip-path="url(#b08d30b6fe)"><g clip-path="url(#a886b93d52)"><path stroke-linecap="butt" transform="matrix(0.75, 0, 0, 0.75, 13.611435, 9.708359)" fill="none" stroke-linejoin="miter" d="M 34.434756 1.508646 L 61.096217 17.019064 C 62.700384 17.951356 63.689967 19.670106 63.689967 21.524273 L 63.689967 52.581567 C 63.689967 54.440942 62.700384 56.154484 61.096217 57.091984 L 34.434756 72.602402 C 32.835798 73.534694 30.851423 73.534694 29.252464 72.602402 L 2.591004 57.091984 C 0.986837 56.154484 0.00246195 54.440942 0.00246195 52.581567 L 0.00246195 21.524273 C 0.00246195 19.670106 0.986837 17.951356 2.591004 17.019064 L 29.252464 1.508646 C 30.851423 0.576354 32.835798 0.576354 34.434756 1.508646 Z M 34.434756 1.508646 " stroke="#b59e5f" stroke-width="6" stroke-opacity="1" stroke-miterlimit="4"/></g></g><g fill="#000000" fill-opacity="1"><g transform="translate(22.733882, 47.226176)"><g><path d="M 12.875 -3.34375 C 13.238281 -3.175781 13.320312 -2.941406 13.125 -2.640625 C 12.507812 -1.734375 12.03125 -1.132812 11.6875 -0.84375 C 10.820312 -0.15625 9.679688 0.1875 8.265625 0.1875 C 6.441406 0.1875 4.878906 -0.523438 3.578125 -1.953125 C 2.285156 -3.378906 1.640625 -5.097656 1.640625 -7.109375 C 1.640625 -9.128906 2.285156 -10.851562 3.578125 -12.28125 C 4.878906 -13.707031 6.441406 -14.421875 8.265625 -14.421875 C 9.359375 -14.421875 10.347656 -14.117188 11.234375 -13.515625 C 11.898438 -13.085938 12.375 -12.601562 12.65625 -12.0625 C 12.820312 -11.75 12.734375 -11.503906 12.390625 -11.328125 C 12.304688 -11.285156 12.210938 -11.234375 12.109375 -11.171875 C 12.015625 -11.171875 11.90625 -11.265625 11.78125 -11.453125 C 10.769531 -12.867188 9.609375 -13.578125 8.296875 -13.578125 C 7.054688 -13.578125 5.992188 -12.945312 5.109375 -11.6875 C 4.234375 -10.4375 3.796875 -8.910156 3.796875 -7.109375 C 3.796875 -5.328125 4.234375 -3.804688 5.109375 -2.546875 C 5.992188 -1.296875 7.054688 -0.671875 8.296875 -0.671875 C 9.367188 -0.671875 10.25 -0.960938 10.9375 -1.546875 C 11.300781 -1.847656 11.710938 -2.382812 12.171875 -3.15625 C 12.335938 -3.4375 12.570312 -3.5 12.875 -3.34375 Z M 12.875 -3.34375 "/></g></g></g><g fill="#000000" fill-opacity="1"><g transform="translate(37.571122, 47.226176)"><g><path d="M 10.625 -13.453125 C 10.625 -13.816406 10.804688 -14 11.171875 -14 L 12.203125 -14 C 12.585938 -14 12.78125 -13.816406 12.78125 -13.453125 L 12.78125 -0.546875 C 12.78125 -0.179688 12.585938 0 12.203125 0 L 11.171875 0 C 10.804688 0 10.625 -0.179688 10.625 -0.546875 L 10.625 -6.140625 C 10.625 -6.503906 10.421875 -6.6875 10.015625 -6.6875 L 4.609375 -6.6875 C 4.003906 -6.6875 3.703125 -6.410156 3.703125 -5.859375 L 3.734375 -0.546875 C 3.734375 -0.179688 3.550781 0 3.1875 0 L 2.15625 0 C 1.789062 0 1.609375 -0.179688 1.609375 -0.546875 L 1.609375 -22.34375 C 1.609375 -22.726562 1.789062 -22.921875 2.15625 -22.921875 L 3.1875 -22.921875 C 3.550781 -22.921875 3.734375 -22.726562 3.734375 -22.34375 L 3.703125 -8.46875 C 3.703125 -7.988281 3.90625 -7.75 4.3125 -7.75 L 10.078125 -7.75 C 10.359375 -7.75 10.519531 -7.769531 10.5625 -7.8125 C 10.601562 -7.863281 10.625 -8.003906 10.625 -8.234375 Z M 10.625 -13.453125 "/></g></g></g></svg>