<?xml version="1.0" encoding="UTF-8" standalone="no"?>
<svg
   width="65.11264"
   zoomAndPan="magnify"
   viewBox="0 0 48.83448 44.468749"
   height="59.291668"
   preserveAspectRatio="xMidYMid"
   version="1.0"
   id="svg7"
   sodipodi:docname="Copy of Ch (5).svg"
   inkscape:version="1.3 (0e150ed, 2023-07-21)"
   xmlns:inkscape="http://www.inkscape.org/namespaces/inkscape"
   xmlns:sodipodi="http://sodipodi.sourceforge.net/DTD/sodipodi-0.dtd"
   xmlns="http://www.w3.org/2000/svg"
   xmlns:svg="http://www.w3.org/2000/svg">
  <sodipodi:namedview
     id="namedview7"
     pagecolor="#ffffff"
     bordercolor="#000000"
     borderopacity="0.25"
     inkscape:showpageshadow="2"
     inkscape:pageopacity="0.0"
     inkscape:pagecheckerboard="0"
     inkscape:deskcolor="#d1d1d1"
     inkscape:zoom="2.36"
     inkscape:cx="20.338983"
     inkscape:cy="22.033898"
     inkscape:window-width="1312"
     inkscape:window-height="449"
     inkscape:window-x="0"
     inkscape:window-y="0"
     inkscape:window-maximized="0"
     inkscape:current-layer="svg7" />
  <defs
     id="defs1">
    <g
       id="g1" />
  </defs>
  <g
     fill="#000000"
     fill-opacity="1"
     id="g4"
     transform="translate(-11.108439,-10.359691)">
    <g
       transform="translate(11.749064,51.324453)"
       id="g3">
      <g
         id="g2">
        <path
           d="m 11.015625,-2.203125 c 1.332031,0 2.804687,-0.523437 4.421875,-1.578125 1.625,-1.0625 3.203125,-2.304688 4.734375,-3.734375 1.53125,-1.425781 2.929687,-2.882813 4.203125,-4.375 1.28125,-1.488281 2.242188,-2.6875 2.890625,-3.59375 0.382813,-0.550781 0.75,-0.878906 1.09375,-0.984375 0.34375,-0.113281 0.601563,-0.0625 0.78125,0.15625 0.175781,0.210938 0.238281,0.542969 0.1875,1 -0.04297,0.449219 -0.234375,0.953125 -0.578125,1.515625 -0.304688,0.523437 -0.8125,1.265625 -1.53125,2.234375 -0.710938,0.96875 -1.546875,2.027344 -2.515625,3.171875 -0.96875,1.148437 -2.070313,2.3125 -3.296875,3.5 -1.230469,1.1875 -2.515625,2.273437 -3.859375,3.25 C 16.210938,-0.671875 14.832031,0.125 13.40625,0.75 11.976562,1.375 10.578125,1.6875 9.203125,1.6875 7.296875,1.6875 5.707031,1.328125 4.4375,0.609375 c -1.273438,-0.7070312 -2.289062,-1.625 -3.046875,-2.75 -0.75,-1.125 -1.277344,-2.363281 -1.578125,-3.71875 -0.300781,-1.363281 -0.453125,-2.710937 -0.453125,-4.046875 0,-1.34375 0.304687,-3.003906 0.90625,-4.984375 0.601563,-1.988281 1.5,-3.898437 2.6875,-5.734375 1.1875,-1.832031 2.6875,-3.40625 4.5,-4.71875 1.8125,-1.320312 3.945313,-1.984375 6.40625,-1.984375 1.382813,0 2.5625,0.476563 3.53125,1.421875 0.96875,0.949219 1.429687,2.246094 1.390625,3.890625 0,0.773437 -0.132812,1.539063 -0.390625,2.296875 -0.261719,0.761719 -0.609375,1.433594 -1.046875,2.015625 -0.429688,0.574219 -0.933594,1.039063 -1.515625,1.390625 -0.585937,0.34375 -1.21875,0.515625 -1.90625,0.515625 -0.5625,0 -0.984375,-0.203125 -1.265625,-0.609375 -0.28125,-0.414062 -0.453125,-0.894531 -0.515625,-1.4375 -0.0625,-0.539062 -0.0625,-1.066406 0,-1.578125 0.0625,-0.519531 0.140625,-0.867187 0.234375,-1.046875 0.207031,-0.300781 0.441406,-0.515625 0.703125,-0.640625 0.257813,-0.132813 0.5625,-0.285156 0.90625,-0.453125 0.257813,-0.132812 0.460937,-0.328125 0.609375,-0.578125 0.15625,-0.257813 0.234375,-0.539063 0.234375,-0.84375 0,-0.300781 -0.08984,-0.5625 -0.265625,-0.78125 -0.167969,-0.21875 -0.445312,-0.328125 -0.828125,-0.328125 -0.398437,0 -1.101563,0.3125 -2.109375,0.9375 -1.011719,0.625 -2.046875,1.558594 -3.109375,2.796875 -1.0625,1.230469 -2.007813,2.773437 -2.828125,4.625 -0.8125,1.855469 -1.242188,4.011719 -1.28125,6.46875 -0.042969,1.429687 0.148438,2.59375 0.578125,3.5 0.4375,0.90625 0.976563,1.621094 1.625,2.140625 0.644531,0.523438 1.351563,0.890625 2.125,1.109375 0.78125,0.210937 1.539063,0.3125 2.28125,0.3125 z m 0,0"
           id="path1" />
      </g>
    </g>
  </g>
  <g
     fill="#000000"
     fill-opacity="1"
     id="g7"
     transform="translate(-11.108439,-10.359691)">
    <g
       transform="translate(35.146046,54.828441)"
       id="g6">
      <g
         id="g5">
        <path
           d="m 20.609375,-26.109375 c 0,-0.707031 0.351563,-1.0625 1.0625,-1.0625 h 2 c 0.75,0 1.125,0.355469 1.125,1.0625 V -1.0625 c 0,0.710938 -0.375,1.0625 -1.125,1.0625 h -2 c -0.710937,0 -1.0625,-0.351562 -1.0625,-1.0625 v -10.859375 c 0,-0.707031 -0.398437,-1.0625 -1.1875,-1.0625 H 8.9375 c -1.167969,0 -1.75,0.542969 -1.75,1.625 L 7.25,-1.0625 C 7.25,-0.351562 6.894531,0 6.1875,0 h -2 C 3.476562,0 3.125,-0.351562 3.125,-1.0625 v -42.28125 c 0,-0.75 0.351562,-1.125 1.0625,-1.125 h 2 c 0.707031,0 1.0625,0.375 1.0625,1.125 l -0.0625,26.921875 c 0,0.917969 0.394531,1.375 1.1875,1.375 h 11.171875 c 0.539063,0 0.851563,-0.03906 0.9375,-0.125 0.08203,-0.08203 0.125,-0.351563 0.125,-0.8125 z m 0,0"
           id="path4" />
      </g>
    </g>
  </g>
</svg>
