<?xml version="1.0" encoding="UTF-8" standalone="no"?>
<svg
   width="73.994789"
   zoomAndPan="magnify"
   viewBox="0 0 55.496092 62.269533"
   height="83.026047"
   preserveAspectRatio="xMidYMid"
   version="1.0"
   id="svg10"
   sodipodi:docname="Copy of Ch (5).svg"
   inkscape:version="1.3 (0e150ed, 2023-07-21)"
   xmlns:inkscape="http://www.inkscape.org/namespaces/inkscape"
   xmlns:sodipodi="http://sodipodi.sourceforge.net/DTD/sodipodi-0.dtd"
   xmlns="http://www.w3.org/2000/svg"
   xmlns:svg="http://www.w3.org/2000/svg">
  <sodipodi:namedview
     id="namedview10"
     pagecolor="#ffffff"
     bordercolor="#000000"
     borderopacity="0.25"
     inkscape:showpageshadow="2"
     inkscape:pageopacity="0.0"
     inkscape:pagecheckerboard="0"
     inkscape:deskcolor="#d1d1d1"
     inkscape:zoom="2.36"
     inkscape:cx="36.864407"
     inkscape:cy="41.525424"
     inkscape:window-width="1312"
     inkscape:window-height="607"
     inkscape:window-x="0"
     inkscape:window-y="0"
     inkscape:window-maximized="0"
     inkscape:current-layer="svg10" />
  <defs
     id="defs2">
    <g
       id="g1" />
    <clipPath
       id="8c4f241ad9">
      <path
         d="M 9.699219,6.15625 H 65.195312 V 68.835938 H 9.699219 Z m 0,0"
         clip-rule="nonzero"
         id="path1" />
    </clipPath>
    <clipPath
       id="36bd40cf3c">
      <path
         d="m 41.386719,7.410156 20.023437,11.648438 c 2.40625,1.402344 3.890625,3.976562 3.890625,6.761718 v 23.351563 c 0,2.785156 -1.484375,5.359375 -3.890625,6.761719 L 41.386719,67.582031 c -2.402344,1.398438 -5.371094,1.398438 -7.777344,0 L 13.585938,55.933594 C 11.179688,54.53125 9.699219,51.957031 9.699219,49.171875 V 25.820312 c 0,-2.785156 1.480469,-5.359374 3.886719,-6.761718 L 33.609375,7.410156 c 2.40625,-1.398437 5.375,-1.398437 7.777344,0 z m 0,0"
         clip-rule="nonzero"
         id="path2" />
    </clipPath>
  </defs>
  <g
     clip-path="url(#8c4f241ad9)"
     id="g4"
     transform="translate(-9.699219,-6.3613282)">
    <g
       clip-path="url(#36bd40cf3c)"
       id="g3">
      <path
         stroke-linecap="butt"
         transform="matrix(0.75,0,0,0.75,9.698539,5.146543)"
         fill="none"
         stroke-linejoin="miter"
         d="m 42.25091,3.018151 26.697919,15.531252 c 3.208333,1.869791 5.1875,5.302083 5.1875,9.015625 v 31.135419 c 0,3.713542 -1.979167,7.145834 -5.1875,9.015626 L 42.25091,83.247324 c -3.203125,1.864584 -7.161459,1.864584 -10.369793,0 L 5.183198,67.716073 C 1.974865,65.846281 9.06403e-4,62.413989 9.06403e-4,58.700447 V 27.565028 c 0,-3.713542 1.973958597,-7.145834 5.182291597,-9.015625 L 31.881117,3.018151 c 3.208334,-1.864583 7.166668,-1.864583 10.369793,0 z m 0,0"
         stroke="#c9c9c9"
         stroke-width="10"
         stroke-opacity="1"
         stroke-miterlimit="4"
         id="path3" />
    </g>
  </g>
  <g
     fill="#000000"
     fill-opacity="1"
     id="g7"
     transform="translate(-9.699219,-6.3613282)">
    <g
       transform="translate(24.124449,44.624995)"
       id="g6">
      <g
         id="g5">
        <path
           d="m 5.671875,-1.140625 c 0.6875,0 1.445313,-0.269531 2.28125,-0.8125 0.832031,-0.539063 1.644531,-1.175781 2.4375,-1.90625 0.789063,-0.738281 1.515625,-1.492187 2.171875,-2.265625 0.65625,-0.769531 1.148438,-1.382812 1.484375,-1.84375 0.195313,-0.289062 0.382813,-0.460938 0.5625,-0.515625 0.1875,-0.0625 0.320313,-0.035156 0.40625,0.078125 0.09375,0.105469 0.125,0.277344 0.09375,0.515625 -0.02344,0.230469 -0.121094,0.492187 -0.296875,0.78125 -0.15625,0.273437 -0.417969,0.65625 -0.78125,1.15625 -0.367188,0.5 -0.796875,1.046875 -1.296875,1.640625 -0.5,0.585938 -1.070313,1.183594 -1.703125,1.796875 -0.636719,0.605469 -1.296875,1.164063 -1.984375,1.671875 -0.6875,0.5 -1.402344,0.9101562 -2.140625,1.234375 C 6.175781,0.710938 5.453125,0.875 4.734375,0.875 3.753906,0.875 2.9375,0.6875 2.28125,0.3125 1.625,-0.0507812 1.101562,-0.519531 0.71875,-1.09375 0.332031,-1.675781 0.0625,-2.316406 -0.09375,-3.015625 -0.25,-3.722656 -0.328125,-4.421875 -0.328125,-5.109375 c 0,-0.6875 0.152344,-1.539063 0.453125,-2.5625 0.3125,-1.019531 0.773438,-2.003906 1.390625,-2.953125 0.613281,-0.945312 1.382813,-1.757812 2.3125,-2.4375 0.9375,-0.675781 2.039063,-1.015625 3.3125,-1.015625 0.707031,0 1.3125,0.246094 1.8125,0.734375 0.507813,0.492188 0.75,1.15625 0.71875,2 0,0.398438 -0.070313,0.792969 -0.203125,1.1875 -0.125,0.386719 -0.304688,0.730469 -0.53125,1.03125 -0.21875,0.304688 -0.480469,0.542969 -0.78125,0.71875 -0.304688,0.179688 -0.632812,0.265625 -0.984375,0.265625 -0.292969,0 -0.511719,-0.101563 -0.65625,-0.3125 C 6.378906,-8.671875 6.289062,-8.914062 6.25,-9.1875 6.21875,-9.46875 6.21875,-9.738281 6.25,-10 c 0.039062,-0.269531 0.082031,-0.453125 0.125,-0.546875 0.113281,-0.15625 0.234375,-0.265625 0.359375,-0.328125 0.132813,-0.07031 0.289063,-0.148438 0.46875,-0.234375 0.132813,-0.07031 0.238281,-0.171875 0.3125,-0.296875 0.082031,-0.132812 0.125,-0.28125 0.125,-0.4375 C 7.640625,-12 7.59375,-12.128906 7.5,-12.234375 7.414062,-12.347656 7.273438,-12.40625 7.078125,-12.40625 c -0.199219,0 -0.5625,0.164062 -1.09375,0.484375 -0.523437,0.3125 -1.054687,0.789063 -1.59375,1.421875 C 3.847656,-9.863281 3.363281,-9.066406 2.9375,-8.109375 2.507812,-7.148438 2.285156,-6.035156 2.265625,-4.765625 2.242188,-4.035156 2.34375,-3.4375 2.5625,-2.96875 2.789062,-2.5 3.070312,-2.128906 3.40625,-1.859375 c 0.332031,0.261719 0.695312,0.449219 1.09375,0.5625 0.40625,0.105469 0.796875,0.15625 1.171875,0.15625 z m 0,0"
           id="path4" />
      </g>
    </g>
  </g>
  <g
     fill="#000000"
     fill-opacity="1"
     id="g10"
     transform="translate(-9.699219,-6.3613282)">
    <g
       transform="translate(36.183042,46.430923)"
       id="g9">
      <g
         id="g8">
        <path
           d="M 10.625,-13.453125 C 10.625,-13.816406 10.804688,-14 11.171875,-14 h 1.03125 c 0.382813,0 0.578125,0.183594 0.578125,0.546875 v 12.90625 C 12.78125,-0.179688 12.585938,0 12.203125,0 h -1.03125 C 10.804688,0 10.625,-0.179688 10.625,-0.546875 v -5.59375 c 0,-0.363281 -0.203125,-0.546875 -0.609375,-0.546875 h -5.40625 c -0.605469,0 -0.90625,0.277344 -0.90625,0.828125 l 0.03125,5.3125 C 3.734375,-0.179688 3.550781,0 3.1875,0 H 2.15625 C 1.789062,0 1.609375,-0.179688 1.609375,-0.546875 V -22.34375 c 0,-0.382812 0.179687,-0.578125 0.546875,-0.578125 H 3.1875 c 0.363281,0 0.546875,0.195313 0.546875,0.578125 l -0.03125,13.875 c 0,0.480469 0.203125,0.71875 0.609375,0.71875 h 5.765625 c 0.28125,0 0.441406,-0.019531 0.484375,-0.0625 0.03906,-0.050781 0.0625,-0.191406 0.0625,-0.421875 z m 0,0"
           id="path7" />
      </g>
    </g>
  </g>
</svg>
