<?xml version="1.0" encoding="UTF-8" standalone="no"?>
<svg
   data-name="Layer 1"
   viewBox="0 0 88 80.03067"
   x="0px"
   y="0px"
   version="1.1"
   id="svg4"
   sodipodi:docname="noun-bubble-text-4084702.svg"
   width="88"
   height="80.03067"
   inkscape:version="1.3 (0e150ed, 2023-07-21)"
   xmlns:inkscape="http://www.inkscape.org/namespaces/inkscape"
   xmlns:sodipodi="http://sodipodi.sourceforge.net/DTD/sodipodi-0.dtd"
   xmlns="http://www.w3.org/2000/svg"
   xmlns:svg="http://www.w3.org/2000/svg">
  <defs
     id="defs4" />
  <sodipodi:namedview
     id="namedview4"
     pagecolor="#ffffff"
     bordercolor="#000000"
     borderopacity="0.25"
     inkscape:showpageshadow="2"
     inkscape:pageopacity="0.0"
     inkscape:pagecheckerboard="0"
     inkscape:deskcolor="#d1d1d1"
     inkscape:zoom="1.9666667"
     inkscape:cx="43.983051"
     inkscape:cy="51.864407"
     inkscape:window-width="1312"
     inkscape:window-height="449"
     inkscape:window-x="-18"
     inkscape:window-y="0"
     inkscape:window-maximized="0"
     inkscape:current-layer="svg4" />
  <title
     id="title1">Artboard 14</title>
  <circle
     cx="58"
     cy="31.000668"
     r="2"
     id="circle1" />
  <circle
     cx="44"
     cy="31.000668"
     r="2"
     id="circle2" />
  <circle
     cx="30"
     cy="31.000668"
     r="2"
     id="circle3" />
  <path
     d="M 70.85,6.683826e-4 H 17.15 A 17,17 0 0 0 0,16.840668 v 27.44 a 17,17 0 0 0 17.15,16.84 h 0.92 v 16.88 a 2,2 0 0 0 1.28,1.88 2.13,2.13 0 0 0 0.79,0.15 2.1,2.1 0 0 0 1.46,-0.59 l 18.63,-18.32 h 30.62 a 17,17 0 0 0 17.15,-16.84 v -27.44 A 17,17 0 0 0 70.85,6.683826e-4 Z M 30,35.000668 a 4,4 0 1 1 4,-4 4,4 0 0 1 -4,4 z m 14,0 a 4,4 0 1 1 4,-4 4,4 0 0 1 -4,4 z m 14,0 a 4,4 0 1 1 4,-4 4,4 0 0 1 -4,4 z"
     id="path3" />
</svg>
