<?xml version="1.0" encoding="UTF-8" standalone="no"?>
<svg
   data-name="Layer 1"
   viewBox="0 0 93 72.723999"
   x="0px"
   y="0px"
   version="1.1"
   id="svg2"
   sodipodi:docname="noun-content-writing-5399831.svg"
   width="93"
   height="72.723999"
   inkscape:version="1.3 (0e150ed, 2023-07-21)"
   xmlns:inkscape="http://www.inkscape.org/namespaces/inkscape"
   xmlns:sodipodi="http://sodipodi.sourceforge.net/DTD/sodipodi-0.dtd"
   xmlns="http://www.w3.org/2000/svg"
   xmlns:svg="http://www.w3.org/2000/svg">
  <defs
     id="defs2" />
  <sodipodi:namedview
     id="namedview2"
     pagecolor="#ffffff"
     bordercolor="#000000"
     borderopacity="0.25"
     inkscape:showpageshadow="2"
     inkscape:pageopacity="0.0"
     inkscape:pagecheckerboard="0"
     inkscape:deskcolor="#d1d1d1"
     inkscape:zoom="1.9873684"
     inkscape:cx="18.365996"
     inkscape:cy="43.273305"
     inkscape:window-width="1312"
     inkscape:window-height="449"
     inkscape:window-x="0"
     inkscape:window-y="0"
     inkscape:window-maximized="0"
     inkscape:current-layer="svg2" />
  <path
     d="m 93,20.344 -1.543,1.6 -3.183,-3.18 1.6,-1.543 z m -28.774,21.6 4.052,4.052 L 89.263,24.22 86,20.955 Z m -2.034,2.435 -0.657,4.308 4.308,-0.656 z M 77.977,8.429 H 6.207 V 1.6 A 1.6,1.6 0 0 1 7.807,0 h 68.569 a 1.6,1.6 0 0 1 1.6,1.6 z M 14.9,4.025 A 1.58,1.58 0 0 0 13.32,2.444 h -0.762 a 1.581,1.581 0 0 0 0,3.161 h 0.762 a 1.58,1.58 0 0 0 1.58,-1.58 z m 7.09,0 A 1.581,1.581 0 0 0 20.409,2.444 h -0.761 a 1.581,1.581 0 1 0 0,3.161 h 0.761 a 1.58,1.58 0 0 0 1.585,-1.58 z m 43.111,0 a 1.58,1.58 0 0 0 -1.58,-1.581 h -0.762 a 1.581,1.581 0 0 0 0,3.161 h 0.762 a 1.58,1.58 0 0 0 1.584,-1.58 z m 7.071,0 a 1.58,1.58 0 0 0 -1.273,-1.55 1.58,1.58 0 0 0 -3,0 1.58,1.58 0 0 0 0,3.1 1.58,1.58 0 0 0 3,0 1.581,1.581 0 0 0 1.277,-1.55 z M 3.26,66.075 A 4.755,4.755 0 0 1 3.046,64.664 V 6.464 H 1.6 A 1.6,1.6 0 0 0 0,8.064 v 63.06 a 1.6,1.6 0 0 0 1.6,1.6 h 68.569 a 1.6,1.6 0 0 0 1.6,-1.6 V 69.422 H 7.808 A 4.771,4.771 0 0 1 3.26,66.075 Z m 72.612,-23.406 2.105,-2.185 v 24.18 a 1.6,1.6 0 0 1 -1.6,1.6 H 7.808 a 1.6,1.6 0 0 1 -1.6,-1.6 V 11.586 h 71.77 v 12.71 l -2.105,2.029 V 23.38 a 1.581,1.581 0 0 0 -3.161,0 v 5.992 l -3.226,3.109 A 1.616,1.616 0 0 0 69.15,32.444 H 51.925 a 1.581,1.581 0 1 0 0,3.161 H 66.244 L 59.7,41.914 a 1.585,1.585 0 0 0 -0.466,0.9 l -0.1,0.66 H 46.515 a 1.581,1.581 0 1 0 0,3.161 H 58.65 l -0.359,2.354 h -2.659 a 1.581,1.581 0 1 0 0,3.161 h 13.517 a 1.58,1.58 0 0 0 0.538,-3.065 l 3.031,-3.145 a 1.58,1.58 0 0 0 3.154,-0.146 z m -46.7,6.32 a 1.581,1.581 0 1 0 0,3.161 h 20.209 a 1.581,1.581 0 0 0 0,-3.161 z m 3,-2.6 a 1.581,1.581 0 0 0 1.58,-1.58 V 28.754 a 1.58,1.58 0 0 0 -1.58,-1.58 h -15.41 a 1.58,1.58 0 0 0 -1.581,1.58 v 16.057 a 1.581,1.581 0 0 0 1.581,1.58 z m 5.351,0.244 h 2.744 a 1.581,1.581 0 0 0 0,-3.161 H 37.52 a 1.581,1.581 0 1 0 0,3.161 z m 0,-8.676 a 1.581,1.581 0 1 0 0,3.161 H 59.01 a 1.581,1.581 0 1 0 0,-3.161 z m 0,-2.354 h 8.154 a 1.581,1.581 0 0 0 0,-3.161 H 37.52 a 1.581,1.581 0 1 0 0,3.161 z m 33.209,-7.095 a 1.58,1.58 0 0 0 -1.58,-1.581 H 37.52 a 1.581,1.581 0 1 0 0,3.161 h 31.629 a 1.58,1.58 0 0 0 1.58,-1.578 z M 40.215,24.575 h 20.8 a 1.581,1.581 0 0 0 0,-3.161 h -20.8 a 1.581,1.581 0 0 0 0,3.161 z m 30.514,-1.58 a 1.58,1.58 0 0 0 -1.58,-1.581 h -1.883 a 1.581,1.581 0 1 0 0,3.161 h 1.883 a 1.58,1.58 0 0 0 1.58,-1.58 z M 26.778,17.48 a 1.58,1.58 0 0 0 1.58,1.58 h 40.791 a 1.581,1.581 0 0 0 0,-3.161 H 28.358 a 1.58,1.58 0 0 0 -1.58,1.581 z m -13.323,0 a 1.58,1.58 0 0 0 1.58,1.58 h 7.072 a 1.581,1.581 0 0 0 0,-3.161 h -7.072 a 1.58,1.58 0 0 0 -1.58,1.581 z m 0,5.515 a 1.58,1.58 0 0 0 1.58,1.58 h 18.929 a 1.581,1.581 0 1 0 0,-3.161 H 15.035 a 1.58,1.58 0 0 0 -1.58,1.581 z m 0,27.575 a 1.58,1.58 0 0 0 1.58,1.58 h 7.881 a 1.581,1.581 0 0 0 0,-3.161 h -7.881 a 1.58,1.58 0 0 0 -1.58,1.581 z m 0,5.515 a 1.58,1.58 0 0 0 1.58,1.58 H 32.67 a 1.58,1.58 0 1 0 0,-3.16 H 15.035 a 1.58,1.58 0 0 0 -1.58,1.58 z M 61.4,61.6 A 1.581,1.581 0 0 0 59.819,60.019 H 15.035 a 1.581,1.581 0 0 0 0,3.161 H 59.819 A 1.58,1.58 0 0 0 61.4,61.6 Z m 9.329,0 a 1.58,1.58 0 0 0 -1.58,-1.581 H 66.07 a 1.581,1.581 0 0 0 0,3.161 h 3.079 a 1.58,1.58 0 0 0 1.58,-1.58 z m 0,-5.515 a 1.58,1.58 0 0 0 -1.58,-1.58 H 38.921 a 1.58,1.58 0 1 0 0,3.16 h 30.228 a 1.58,1.58 0 0 0 1.58,-1.58 z M 18.342,43.23 H 30.588 V 30.334 H 18.342 Z"
     id="path1" />
</svg>
